<?xml version="1.0" encoding="UTF-8"?>
<!DOCTYPE svg PUBLIC "-//W3C//DTD SVG 1.1//EN" "http://www.w3.org/Graphics/SVG/1.1/DTD/svg11.dtd">
<svg xmlns="http://www.w3.org/2000/svg" version="1.1" width="512px" height="512px" style="shape-rendering:geometricPrecision; text-rendering:geometricPrecision; image-rendering:optimizeQuality; fill-rule:evenodd; clip-rule:evenodd" xmlns:xlink="http://www.w3.org/1999/xlink">
<g><path style="opacity:0.982" fill="#eb563b" d="M 259.5,24.5 C 263.708,27.195 267.542,30.5284 271,34.5C 287.801,52.9688 304.968,71.1355 322.5,89C 322.272,89.3988 321.938,89.5654 321.5,89.5C 310.036,85.3848 298.37,82.0514 286.5,79.5C 269.833,61.5 253.167,43.5 236.5,25.5C 244.142,24.7368 251.809,24.4035 259.5,24.5 Z"/></g>
<g><path style="opacity:0.982" fill="#ea4d3b" d="M 259.5,24.5 C 266.496,24.8936 273.496,25.2269 280.5,25.5C 280.082,26.2216 279.416,26.7216 278.5,27C 302.302,52.47 326.469,77.6367 351,102.5C 351.464,103.094 351.631,103.761 351.5,104.5C 341.74,98.9534 331.74,93.9534 321.5,89.5C 321.938,89.5654 322.272,89.3988 322.5,89C 304.968,71.1355 287.801,52.9688 271,34.5C 267.542,30.5284 263.708,27.195 259.5,24.5 Z"/></g>
<g><path style="opacity:0.988" fill="#ec603c" d="M 236.5,25.5 C 253.167,43.5 269.833,61.5 286.5,79.5C 281.453,79.0776 276.453,78.4109 271.5,77.5C 256.871,61.7026 242.038,46.0359 227,30.5C 226.209,29.255 225.709,27.9217 225.5,26.5C 229.135,25.8857 232.802,25.5524 236.5,25.5 Z"/></g>
<g><path style="opacity:0.983" fill="#ec673c" d="M 225.5,26.5 C 225.709,27.9217 226.209,29.255 227,30.5C 242.038,46.0359 256.871,61.7026 271.5,77.5C 264.833,77.5 258.167,77.5 251.5,77.5C 236.395,62.2259 221.395,46.7259 206.5,31C 207.056,30.6174 207.389,30.1174 207.5,29.5C 213.461,28.2843 219.461,27.2843 225.5,26.5 Z"/></g>
<g><path style="opacity:0.985" fill="#ea473a" d="M 280.5,25.5 C 284.127,26.2464 287.794,26.9131 291.5,27.5C 355.775,95.1102 420.441,162.444 485.5,229.5C 485.916,234.493 486.249,239.493 486.5,244.5C 461.863,218.529 436.863,192.862 411.5,167.5C 400.308,148.793 386.308,132.293 369.5,118C 363.253,113.723 357.253,109.223 351.5,104.5C 351.631,103.761 351.464,103.094 351,102.5C 326.469,77.6367 302.302,52.47 278.5,27C 279.416,26.7216 280.082,26.2216 280.5,25.5 Z"/></g>
<g><path style="opacity:0.991" fill="#ed6d3c" d="M 207.5,29.5 C 207.389,30.1174 207.056,30.6174 206.5,31C 221.395,46.7259 236.395,62.2259 251.5,77.5C 243.425,77.4031 235.425,78.0698 227.5,79.5C 212.576,65.574 198.243,50.9073 184.5,35.5C 192.129,33.3429 199.795,31.3429 207.5,29.5 Z"/></g>
<g><path style="opacity:0.99" fill="#e93e39" d="M 291.5,27.5 C 373.76,42.6111 432.593,87.9445 468,163.5C 476.96,184.673 482.793,206.673 485.5,229.5C 420.441,162.444 355.775,95.1102 291.5,27.5 Z"/></g>
<g><path style="opacity:0.987" fill="#ee733d" d="M 184.5,35.5 C 198.243,50.9073 212.576,65.574 227.5,79.5C 219.744,80.7845 212.077,82.4512 204.5,84.5C 191.194,70.86 177.861,57.1934 164.5,43.5C 170.878,40.318 177.545,37.6514 184.5,35.5 Z"/></g>
<g><path style="opacity:0.988" fill="#ef793d" d="M 164.5,43.5 C 177.861,57.1934 191.194,70.86 204.5,84.5C 197.827,86.8374 191.161,89.1707 184.5,91.5C 171.496,78.4956 158.829,65.1623 146.5,51.5C 152.26,48.2866 158.26,45.62 164.5,43.5 Z"/></g>
<g><path style="opacity:0.992" fill="#f07f3d" d="M 146.5,51.5 C 158.829,65.1623 171.496,78.4956 184.5,91.5C 177.665,95.4179 170.665,99.0846 163.5,102.5C 153.563,92.0618 143.396,81.7284 133,71.5C 130.92,68.9348 129.087,66.2682 127.5,63.5C 133.628,59.2639 139.962,55.2639 146.5,51.5 Z"/></g>
<g><path style="opacity:0.99" fill="#f1863e" d="M 127.5,63.5 C 129.087,66.2682 130.92,68.9348 133,71.5C 143.396,81.7284 153.563,92.0618 163.5,102.5C 158.204,106.154 152.871,109.821 147.5,113.5C 134.41,101.746 122.41,89.0796 111.5,75.5C 116.079,70.5385 121.413,66.5385 127.5,63.5 Z"/></g>
<g><path style="opacity:0.989" fill="#f28c3e" d="M 111.5,75.5 C 122.41,89.0796 134.41,101.746 147.5,113.5C 143.392,117.394 139.059,121.061 134.5,124.5C 133.153,125.028 131.819,125.195 130.5,125C 118.961,112.964 107.628,100.797 96.5,88.5C 100.609,83.0524 105.609,78.7191 111.5,75.5 Z"/></g>
<g><path style="opacity:0.99" fill="#f3933b" d="M 96.5,88.5 C 107.628,100.797 118.961,112.964 130.5,125C 131.819,125.195 133.153,125.028 134.5,124.5C 126.061,132.598 118.394,141.265 111.5,150.5C 103.235,141.063 94.7349,131.73 86,122.5C 82.5706,118.561 78.7372,115.228 74.5,112.5C 80.7559,103.575 88.0892,95.5746 96.5,88.5 Z"/></g>
<g><path style="opacity:0.986" fill="#f49935" d="M 74.5,112.5 C 78.7372,115.228 82.5706,118.561 86,122.5C 94.7349,131.73 103.235,141.063 111.5,150.5C 107.487,156.537 103.487,162.537 99.5,168.5C 98.7611,168.631 98.0944,168.464 97.5,168C 86.0111,155.545 74.1778,143.378 62,131.5C 61.6174,132.056 61.1174,132.389 60.5,132.5C 64.1846,125.125 68.8513,118.459 74.5,112.5 Z"/></g>
<g><path style="opacity:0.988" fill="#ef783d" d="M 265.5,177.5 C 254.478,165.48 243.478,153.48 232.5,141.5C 235.49,134.352 240.823,129.852 248.5,128C 265.084,125.199 275.917,131.699 281,147.5C 282.951,161.267 277.784,171.267 265.5,177.5 Z"/></g>
<g><path style="opacity:0.99" fill="#f59f30" d="M 99.5,168.5 C 95.4628,177.236 91.4628,185.902 87.5,194.5C 74.4719,180.474 61.4719,166.474 48.5,152.5C 52.0115,145.466 56.0115,138.799 60.5,132.5C 61.1174,132.389 61.6174,132.056 62,131.5C 74.1778,143.378 86.0111,155.545 97.5,168C 98.0944,168.464 98.7611,168.631 99.5,168.5 Z"/></g>
<g><path style="opacity:0.97" fill="#f07e3d" d="M 232.5,141.5 C 243.478,153.48 254.478,165.48 265.5,177.5C 249.781,182.097 238.281,177.097 231,162.5C 228.655,155.151 229.155,148.151 232.5,141.5 Z"/></g>
<g><path style="opacity:0.986" fill="#f6a52a" d="M 48.5,152.5 C 61.4719,166.474 74.4719,180.474 87.5,194.5C 84.7576,203.728 82.4243,213.061 80.5,222.5C 66.1667,207.833 51.8333,193.167 37.5,178.5C 40.7768,169.67 44.4434,161.003 48.5,152.5 Z"/></g>
<g><path style="opacity:0.985" fill="#ea4d3b" d="M 411.5,167.5 C 436.863,192.862 461.863,218.529 486.5,244.5C 486.5,249.833 486.5,255.167 486.5,260.5C 465.47,239.471 444.803,218.137 424.5,196.5C 420.479,186.784 416.146,177.117 411.5,167.5 Z"/></g>
<g><path style="opacity:0.988" fill="#f8ac25" d="M 37.5,178.5 C 51.8333,193.167 66.1667,207.833 80.5,222.5C 78.1852,233.023 77.1852,243.69 77.5,254.5C 70.5899,249.096 64.0899,243.096 58,236.5C 51.6984,229.197 45.0317,222.197 38,215.5C 35.2589,212.271 32.7589,208.938 30.5,205.5C 32.0497,196.301 34.383,187.301 37.5,178.5 Z"/></g>
<g><path style="opacity:0.988" fill="#f28c3f" d="M 232.5,203.5 C 248.497,220.83 264.83,237.83 281.5,254.5C 281.5,265.833 281.5,277.167 281.5,288.5C 280.686,286.369 280.186,284.036 280,281.5C 259.968,261.136 240.302,240.469 221,219.5C 217.969,215.907 214.803,213.24 211.5,211.5C 217.242,205.806 224.242,203.139 232.5,203.5 Z"/></g>
<g><path style="opacity:0.97" fill="#f1863d" d="M 232.5,203.5 C 272.201,197.869 288.534,214.869 281.5,254.5C 264.83,237.83 248.497,220.83 232.5,203.5 Z"/></g>
<g><path style="opacity:0.987" fill="#f9b021" d="M 30.5,205.5 C 32.7589,208.938 35.2589,212.271 38,215.5C 45.0317,222.197 51.6984,229.197 58,236.5C 64.0899,243.096 70.5899,249.096 77.5,254.5C 77.3536,262.196 77.6869,269.862 78.5,277.5C 61.2152,259.881 43.8818,242.214 26.5,224.5C 27.3432,217.944 28.6766,211.611 30.5,205.5 Z"/></g>
<g><path style="opacity:0.987" fill="#f3913d" d="M 211.5,211.5 C 214.803,213.24 217.969,215.907 221,219.5C 240.302,240.469 259.968,261.136 280,281.5C 280.186,284.036 280.686,286.369 281.5,288.5C 281.5,298.5 281.5,308.5 281.5,318.5C 280.672,312.681 280.172,306.681 280,300.5C 259.968,280.136 240.302,259.469 221,238.5C 215.909,232.902 210.409,227.902 204.5,223.5C 205.828,218.835 208.161,214.835 211.5,211.5 Z"/></g>
<g><path style="opacity:0.989" fill="#eb583b" d="M 424.5,196.5 C 444.803,218.137 465.47,239.471 486.5,260.5C 486.59,269.247 485.923,277.914 484.5,286.5C 467.683,268.908 450.849,251.241 434,233.5C 433.536,234.094 433.369,234.761 433.5,235.5C 431.319,222.434 428.319,209.434 424.5,196.5 Z"/></g>
<g><path style="opacity:0.996" fill="#f4943a" d="M 204.5,223.5 C 210.409,227.902 215.909,232.902 221,238.5C 240.302,259.469 259.968,280.136 280,300.5C 280.172,306.681 280.672,312.681 281.5,318.5C 281.5,322.833 281.5,327.167 281.5,331.5C 280.698,330.048 280.198,328.382 280,326.5C 263.667,309.5 247.333,292.5 231,275.5C 230.809,277.708 230.309,279.708 229.5,281.5C 229.5,272.833 229.5,264.167 229.5,255.5C 213.469,254.637 204.803,246.137 203.5,230C 203.788,227.813 204.122,225.646 204.5,223.5 Z"/></g>
<g><path style="opacity:0.987" fill="#ec603c" d="M 484.5,286.5 C 484.354,290.387 483.687,294.054 482.5,297.5C 466.5,281.167 450.5,264.833 434.5,248.5C 433.564,244.265 433.231,239.931 433.5,235.5C 433.369,234.761 433.536,234.094 434,233.5C 450.849,251.241 467.683,268.908 484.5,286.5 Z"/></g>
<g><path style="opacity:0.994" fill="#f9b31d" d="M 26.5,224.5 C 43.8818,242.214 61.2152,259.881 78.5,277.5C 79.7814,286.574 81.4481,295.574 83.5,304.5C 63.4698,284.471 43.8031,264.137 24.5,243.5C 25.3308,237.202 25.9975,230.868 26.5,224.5 Z"/></g>
<g><path style="opacity:0.993" fill="#ed673b" d="M 434.5,248.5 C 450.5,264.833 466.5,281.167 482.5,297.5C 482.041,303.809 480.707,309.809 478.5,315.5C 466.2,303.032 454.034,290.365 442,277.5C 439.564,274.553 436.731,272.22 433.5,270.5C 434.187,263.187 434.521,255.854 434.5,248.5 Z"/></g>
<g><path style="opacity:0.991" fill="#fab918" d="M 24.5,243.5 C 43.8031,264.137 63.4698,284.471 83.5,304.5C 88.6734,320.185 95.5067,335.185 104,349.5C 106.469,355.151 106.969,360.818 105.5,366.5C 103.913,363.732 102.08,361.065 100,358.5C 75.6357,333.803 51.6357,308.803 28,283.5C 27.6174,284.056 27.1174,284.389 26.5,284.5C 24.9288,270.889 24.2621,257.222 24.5,243.5 Z"/></g>
<g><path style="opacity:0.992" fill="#ed6d3c" d="M 433.5,270.5 C 436.731,272.22 439.564,274.553 442,277.5C 454.034,290.365 466.2,303.032 478.5,315.5C 476.941,323.174 474.607,330.508 471.5,337.5C 458.122,322.456 444.122,308.123 429.5,294.5C 431.647,286.671 432.98,278.671 433.5,270.5 Z"/></g>
<g><path style="opacity:0.994" fill="#f49936" d="M 281.5,331.5 C 301.195,335.037 309.362,346.703 306,366.5C 304.363,371.279 301.529,374.946 297.5,377.5C 274.836,355.003 252.67,332.003 231,308.5C 230.814,305.964 230.314,303.631 229.5,301.5C 229.5,294.833 229.5,288.167 229.5,281.5C 230.309,279.708 230.809,277.708 231,275.5C 247.333,292.5 263.667,309.5 280,326.5C 280.198,328.382 280.698,330.048 281.5,331.5 Z"/></g>
<g><path style="opacity:0.992" fill="#fbbd14" d="M 105.5,366.5 C 104.303,372.956 102.636,379.289 100.5,385.5C 98.629,385.141 97.129,384.141 96,382.5C 75.2539,359.924 54.0872,337.924 32.5,316.5C 29.8585,305.959 27.8585,295.292 26.5,284.5C 27.1174,284.389 27.6174,284.056 28,283.5C 51.6357,308.803 75.6357,333.803 100,358.5C 102.08,361.065 103.913,363.732 105.5,366.5 Z"/></g>
<g><path style="opacity:0.986" fill="#ee733c" d="M 429.5,294.5 C 444.122,308.123 458.122,322.456 471.5,337.5C 469.612,344.164 466.946,350.497 463.5,356.5C 450.167,342.833 436.833,329.167 423.5,315.5C 426.274,308.74 428.274,301.74 429.5,294.5 Z"/></g>
<g><path style="opacity:0.989" fill="#ef793d" d="M 423.5,315.5 C 436.833,329.167 450.167,342.833 463.5,356.5C 460.658,362.857 457.325,368.857 453.5,374.5C 440.806,361.473 428.139,348.473 415.5,335.5C 418.72,329.059 421.387,322.392 423.5,315.5 Z"/></g>
<g><path style="opacity:0.991" fill="#f59f30" d="M 229.5,301.5 C 230.314,303.631 230.814,305.964 231,308.5C 252.67,332.003 274.836,355.003 297.5,377.5C 295.2,380.324 292.2,382.157 288.5,383C 281.508,383.5 274.508,383.666 267.5,383.5C 255.171,369.838 242.504,356.504 229.5,343.5C 229.5,329.5 229.5,315.5 229.5,301.5 Z"/></g>
<g><path style="opacity:0.984" fill="#fcc30f" d="M 32.5,316.5 C 54.0872,337.924 75.2539,359.924 96,382.5C 97.129,384.141 98.629,385.141 100.5,385.5C 97.5,395.5 94.5,405.5 91.5,415.5C 78.12,402.435 64.9534,389.102 52,375.5C 51.2086,374.255 50.7086,372.922 50.5,371.5C 51.3287,368.531 51.4954,365.531 51,362.5C 43.4282,347.696 37.2615,332.362 32.5,316.5 Z"/></g>
<g><path style="opacity:0.992" fill="#f0803d" d="M 415.5,335.5 C 428.139,348.473 440.806,361.473 453.5,374.5C 449.675,381.479 445.342,388.146 440.5,394.5C 428.532,381.198 416.199,368.198 403.5,355.5C 407.933,349.073 411.933,342.406 415.5,335.5 Z"/></g>
<g><path style="opacity:0.989" fill="#f6a32c" d="M 229.5,343.5 C 242.504,356.504 255.171,369.838 267.5,383.5C 238.186,386.183 225.52,372.85 229.5,343.5 Z"/></g>
<g><path style="opacity:0.991" fill="#f1863d" d="M 403.5,355.5 C 416.199,368.198 428.532,381.198 440.5,394.5C 436.845,399.486 432.845,404.153 428.5,408.5C 415.487,396.819 403.487,384.153 392.5,370.5C 396.411,365.678 400.078,360.678 403.5,355.5 Z"/></g>
<g><path style="opacity:0.994" fill="#f28c3e" d="M 392.5,370.5 C 403.487,384.153 415.487,396.819 428.5,408.5C 424.873,413.794 420.54,418.461 415.5,422.5C 414.761,422.631 414.094,422.464 413.5,422C 403.03,410.529 392.197,399.363 381,388.5C 380.209,387.255 379.709,385.922 379.5,384.5C 383.861,379.807 388.195,375.141 392.5,370.5 Z"/></g>
<g><path style="opacity:0.99" fill="#fdc80e" d="M 50.5,371.5 C 50.7086,372.922 51.2086,374.255 52,375.5C 64.9534,389.102 78.12,402.435 91.5,415.5C 90.962,417.117 90.6287,418.784 90.5,420.5C 92.2915,420.634 93.9582,420.301 95.5,419.5C 108.133,434.467 121.467,448.801 135.5,462.5C 112.775,468.964 90.1081,475.631 67.5,482.5C 54.5274,469.193 41.5274,455.86 28.5,442.5C 35.6944,418.703 43.0278,395.037 50.5,371.5 Z"/></g>
<g><path style="opacity:0.988" fill="#f3933b" d="M 379.5,384.5 C 379.709,385.922 380.209,387.255 381,388.5C 392.197,399.363 403.03,410.529 413.5,422C 414.094,422.464 414.761,422.631 415.5,422.5C 407.437,430.228 398.77,437.228 389.5,443.5C 387.577,440.397 385.41,437.397 383,434.5C 373.224,424.555 363.391,414.889 353.5,405.5C 362.142,398.53 370.809,391.53 379.5,384.5 Z"/></g>
<g><path style="opacity:0.992" fill="#fbbe14" d="M 144.5,405.5 C 168.098,431.267 192.265,456.6 217,481.5C 217.464,482.094 217.631,482.761 217.5,483.5C 200.161,480.496 183.495,475.496 167.5,468.5C 168.239,468.631 168.906,468.464 169.5,468C 151.963,449.964 134.629,431.798 117.5,413.5C 126.18,410.076 135.18,407.409 144.5,405.5 Z"/></g>
<g><path style="opacity:0.991" fill="#f49935" d="M 353.5,405.5 C 363.391,414.889 373.224,424.555 383,434.5C 385.41,437.397 387.577,440.397 389.5,443.5C 384.352,447.911 378.686,451.578 372.5,454.5C 371.448,454.649 370.448,454.483 369.5,454C 357.633,441.301 345.633,428.801 333.5,416.5C 340.159,412.837 346.826,409.17 353.5,405.5 Z"/></g>
<g><path style="opacity:0.99" fill="#fab819" d="M 198.5,424.5 C 201.094,428.272 203.927,431.939 207,435.5C 223.371,452.369 239.537,469.369 255.5,486.5C 242.776,486.162 230.11,485.162 217.5,483.5C 217.631,482.761 217.464,482.094 217,481.5C 192.265,456.6 168.098,431.267 144.5,405.5C 150.161,404.131 155.828,404.631 161.5,407C 173.067,414.45 185.401,420.284 198.5,424.5 Z"/></g>
<g><path style="opacity:0.986" fill="#fcc30e" d="M 117.5,413.5 C 134.629,431.798 151.963,449.964 169.5,468C 168.906,468.464 168.239,468.631 167.5,468.5C 160.952,466.228 154.619,463.394 148.5,460C 143.911,459.473 139.578,460.307 135.5,462.5C 121.467,448.801 108.133,434.467 95.5,419.5C 102.777,417.297 110.11,415.297 117.5,413.5 Z"/></g>
<g><path style="opacity:0.988" fill="#f59f30" d="M 333.5,416.5 C 345.633,428.801 357.633,441.301 369.5,454C 370.448,454.483 371.448,454.649 372.5,454.5C 364.43,459.868 355.763,464.202 346.5,467.5C 334.59,453.252 321.924,439.586 308.5,426.5C 316.879,423.484 325.212,420.151 333.5,416.5 Z"/></g>
<g><path style="opacity:0.987" fill="#f6a52a" d="M 308.5,426.5 C 321.924,439.586 334.59,453.252 346.5,467.5C 338.611,471.465 330.278,474.465 321.5,476.5C 307.833,461.833 294.167,447.167 280.5,432.5C 289.922,430.882 299.256,428.882 308.5,426.5 Z"/></g>
<g><path style="opacity:0.989" fill="#f9b120" d="M 198.5,424.5 C 214.521,429.889 230.855,433.222 247.5,434.5C 262.296,450.464 277.296,466.297 292.5,482C 291.584,482.278 290.918,482.778 290.5,483.5C 278.958,485.363 267.291,486.363 255.5,486.5C 239.537,469.369 223.371,452.369 207,435.5C 203.927,431.939 201.094,428.272 198.5,424.5 Z"/></g>
<g><path style="opacity:0.993" fill="#f8ac24" d="M 280.5,432.5 C 294.167,447.167 307.833,461.833 321.5,476.5C 311.539,479.962 301.206,482.295 290.5,483.5C 290.918,482.778 291.584,482.278 292.5,482C 277.296,466.297 262.296,450.464 247.5,434.5C 258.542,434.441 269.542,433.774 280.5,432.5 Z"/></g>
<g><path style="opacity:0.956" fill="#fdcf15" d="M 28.5,442.5 C 41.5274,455.86 54.5274,469.193 67.5,482.5C 56.7402,487.937 46.0735,487.77 35.5,482C 28.5196,476.539 24.853,469.373 24.5,460.5C 25.2178,454.351 26.5512,448.351 28.5,442.5 Z"/></g>
</svg>
