<?xml version="1.0" encoding="UTF-8"?>
<!DOCTYPE svg PUBLIC "-//W3C//DTD SVG 1.1//EN" "http://www.w3.org/Graphics/SVG/1.1/DTD/svg11.dtd">
<svg xmlns="http://www.w3.org/2000/svg" version="1.1" width="512px" height="512px" style="shape-rendering:geometricPrecision; text-rendering:geometricPrecision; image-rendering:optimizeQuality; fill-rule:evenodd; clip-rule:evenodd" xmlns:xlink="http://www.w3.org/1999/xlink">
<g><path style="opacity:0.984" fill="#eb4325" d="M 293.5,60.5 C 301.221,69.2224 309.554,77.2224 318.5,84.5C 310.161,91.4945 301.495,98.1612 292.5,104.5C 293.508,107.195 294.508,109.862 295.5,112.5C 288.53,107.197 282.196,101.197 276.5,94.5C 283.747,88.5312 291.414,83.0312 299.5,78C 288.403,77.9555 277.403,77.2889 266.5,76C 265.299,75.0975 264.465,73.9308 264,72.5C 261.399,63.3634 258.399,54.3634 255,45.5C 252.965,53.1063 250.465,60.4397 247.5,67.5C 243.534,62.199 239.2,57.199 234.5,52.5C 238.957,39.9606 243.124,27.2939 247,14.5C 250.016,8.62799 254.516,7.12799 260.5,10C 261.701,10.9025 262.535,12.0692 263,13.5C 268.202,28.7712 273.202,44.1045 278,59.5C 283.072,60.4714 288.238,60.8047 293.5,60.5 Z"/></g>
<g><path style="opacity:0.968" fill="#ec4e23" d="M 234.5,52.5 C 239.2,57.199 243.534,62.199 247.5,67.5C 247.608,72.0213 245.608,75.188 241.5,77C 235.843,77.4994 230.176,77.6661 224.5,77.5C 224.611,76.8826 224.944,76.3826 225.5,76C 220.297,70.9646 215.297,65.798 210.5,60.5C 217.863,60.8306 225.197,60.4973 232.5,59.5C 233.577,57.2706 234.244,54.9372 234.5,52.5 Z"/></g>
<g><path style="opacity:0.97" fill="#ee5821" d="M 210.5,60.5 C 215.297,65.798 220.297,70.9646 225.5,76C 224.944,76.3826 224.611,76.8826 224.5,77.5C 220.154,77.3343 215.821,77.501 211.5,78C 218.5,83 225.5,88 232.5,93C 236.13,96.0498 237.297,99.8831 236,104.5C 233.765,111.712 231.265,118.712 228.5,125.5C 227.883,125.611 227.383,125.944 227,126.5C 222.564,122.572 218.731,118.239 215.5,113.5C 216.548,110.211 217.048,106.878 217,103.5C 204.307,93.9733 191.473,84.6399 178.5,75.5C 174.025,69.8604 174.691,65.0271 180.5,61C 190.494,60.5002 200.494,60.3335 210.5,60.5 Z"/></g>
<g><path style="opacity:0.966" fill="#ea3a26" d="M 293.5,60.5 C 306.266,60.0391 318.933,60.5391 331.5,62C 334.902,65.719 335.402,69.8857 333,74.5C 328.37,78.2233 323.536,81.5567 318.5,84.5C 309.554,77.2224 301.221,69.2224 293.5,60.5 Z"/></g>
<g><path style="opacity:0.972" fill="#ed4e23" d="M 276.5,94.5 C 282.196,101.197 288.53,107.197 295.5,112.5C 299.025,124.575 302.858,136.575 307,148.5C 307.497,150.81 307.663,153.143 307.5,155.5C 298.445,147.446 290.111,138.779 282.5,129.5C 279.304,119.912 276.304,110.245 273.5,100.5C 274.001,98.1643 275.001,96.1643 276.5,94.5 Z"/></g>
<g><path style="opacity:0.978" fill="#ee5422" d="M 282.5,129.5 C 290.111,138.779 298.445,147.446 307.5,155.5C 304.463,160.255 300.129,161.755 294.5,160C 281.984,150.97 269.65,141.803 257.5,132.5C 253.833,126.833 249.167,122.167 243.5,118.5C 246.989,115.357 250.989,113.023 255.5,111.5C 265.011,116.754 274.011,122.754 282.5,129.5 Z"/></g>
<g><path style="opacity:0.977" fill="#ef5e20" d="M 215.5,113.5 C 218.731,118.239 222.564,122.572 227,126.5C 227.383,125.944 227.883,125.611 228.5,125.5C 228.281,126.675 228.614,127.675 229.5,128.5C 234.196,125.157 238.863,121.824 243.5,118.5C 249.167,122.167 253.833,126.833 257.5,132.5C 255.806,131.314 254.139,131.481 252.5,133C 244.289,139.384 235.956,145.551 227.5,151.5C 221.193,145.528 214.86,139.528 208.5,133.5C 210.463,126.608 212.796,119.941 215.5,113.5 Z"/></g>
<g><path style="opacity:0.968" fill="#f0661e" d="M 208.5,133.5 C 214.86,139.528 221.193,145.528 227.5,151.5C 223.657,154.503 219.657,157.336 215.5,160C 208.096,162.561 203.763,160.061 202.5,152.5C 204.352,146.085 206.352,139.751 208.5,133.5 Z"/></g>
<g><path style="opacity:0.964" fill="#e93527" d="M 482.5,223.5 C 463.752,206.254 445.418,188.42 427.5,170C 426.906,169.536 426.239,169.369 425.5,169.5C 426.628,164.276 428.628,159.442 431.5,155C 437.134,152.224 441.634,153.391 445,158.5C 448.941,170.821 452.774,183.155 456.5,195.5C 470.504,195.333 484.504,195.5 498.5,196C 503.609,199.366 504.776,203.866 502,209.5C 495.9,214.773 489.4,219.44 482.5,223.5 Z"/></g>
<g><path style="opacity:0.974" fill="#ef5c20" d="M 334.5,260.5 C 329.898,254.56 324.898,248.893 319.5,243.5C 318.215,214.409 304.215,194.243 277.5,183C 269.715,180.36 261.715,178.86 253.5,178.5C 248.833,173.5 244.167,168.5 239.5,163.5C 277.692,158.182 306.859,171.849 327,204.5C 335.895,222.328 338.395,240.995 334.5,260.5 Z"/></g>
<g><path style="opacity:0.976" fill="#f58d18" d="M 92.5,203.5 C 82.8333,194.167 73.1667,184.833 63.5,175.5C 64.2301,166.586 68.8968,162.753 77.5,164C 78.6667,165.167 79.8333,166.333 81,167.5C 85.1421,179.425 88.9754,191.425 92.5,203.5 Z"/></g>
<g><path style="opacity:0.97" fill="#f0671e" d="M 239.5,163.5 C 244.167,168.5 248.833,173.5 253.5,178.5C 245.192,179.244 237.192,181.244 229.5,184.5C 225.473,179.806 221.14,175.473 216.5,171.5C 223.734,167.644 231.401,164.977 239.5,163.5 Z"/></g>
<g><path style="opacity:0.965" fill="#eb3c26" d="M 425.5,169.5 C 426.239,169.369 426.906,169.536 427.5,170C 445.418,188.42 463.752,206.254 482.5,223.5C 477.873,226.791 473.54,230.458 469.5,234.5C 468.883,234.611 468.383,234.944 468,235.5C 464.333,231.833 460.667,228.167 457,224.5C 456.517,223.552 456.351,222.552 456.5,221.5C 460.343,218.497 464.343,215.664 468.5,213C 460.729,212.934 453.062,212.267 445.5,211C 444.667,210.167 443.833,209.333 443,208.5C 440.845,202.214 438.845,195.88 437,189.5C 435.131,194.772 433.465,200.106 432,205.5C 431.208,207.587 430.041,209.421 428.5,211C 421.95,212.42 415.284,212.92 408.5,212.5C 411.305,211.681 414.305,211.181 417.5,211C 412.833,206.333 408.167,201.667 403.5,197C 398.981,196.825 394.647,196.325 390.5,195.5C 399.5,195.5 408.5,195.5 417.5,195.5C 419.97,186.758 422.637,178.091 425.5,169.5 Z"/></g>
<g><path style="opacity:0.969" fill="#f59217" d="M 63.5,175.5 C 73.1667,184.833 82.8333,194.167 92.5,203.5C 93.9899,205.28 95.9899,205.946 98.5,205.5C 97.7375,206.268 96.7375,206.768 95.5,207C 104.036,215.368 112.369,223.868 120.5,232.5C 116.135,236.189 111.469,239.522 106.5,242.5C 102.167,238.833 98.1667,234.833 94.5,230.5C 97.9563,228.217 101.29,225.717 104.5,223C 97.5,222.667 90.5,222.333 83.5,222C 81.1853,220.891 79.6853,219.057 79,216.5C 77.4589,211.375 75.6256,206.375 73.5,201.5C 72.438,203.022 71.7713,204.688 71.5,206.5C 66.5584,202.897 61.8918,198.897 57.5,194.5C 59.1016,188.029 61.1016,181.696 63.5,175.5 Z"/></g>
<g><path style="opacity:0.961" fill="#f1711d" d="M 216.5,171.5 C 221.14,175.473 225.473,179.806 229.5,184.5C 218.66,189.683 209.66,197.016 202.5,206.5C 197.893,203.232 193.559,199.565 189.5,195.5C 196.639,185.358 205.639,177.358 216.5,171.5 Z"/></g>
<g><path style="opacity:0.949" fill="#f69915" d="M 57.5,194.5 C 61.8918,198.897 66.5584,202.897 71.5,206.5C 69.9686,211.257 68.1352,215.923 66,220.5C 62.7568,222.263 59.2568,222.929 55.5,222.5C 50.1667,216.833 44.8333,211.167 39.5,205.5C 44.1785,205.666 48.8452,205.499 53.5,205C 54.9583,201.446 56.2917,197.946 57.5,194.5 Z"/></g>
<g><path style="opacity:0.97" fill="#ec4c23" d="M 390.5,195.5 C 394.647,196.325 398.981,196.825 403.5,197C 408.167,201.667 412.833,206.333 417.5,211C 414.305,211.181 411.305,211.681 408.5,212.5C 407.448,212.351 406.448,212.517 405.5,213C 412.258,216.762 418.091,221.595 423,227.5C 421.873,234.544 420.54,241.544 419,248.5C 421.052,246.942 423.219,245.608 425.5,244.5C 430.194,248.527 434.527,252.86 438.5,257.5C 437.448,257.351 436.448,257.517 435.5,258C 430.62,261.72 425.62,265.22 420.5,268.5C 413.109,262.111 406.443,255.111 400.5,247.5C 401.802,242.782 402.968,238.115 404,233.5C 394.433,225.966 384.599,218.8 374.5,212C 369.634,207.281 369.301,202.281 373.5,197C 379.044,195.596 384.71,195.096 390.5,195.5 Z"/></g>
<g><path style="opacity:0.967" fill="#f8a513" d="M 18.5,205.5 C 17.3915,206.29 16.0581,206.79 14.5,207C 28.7015,221.369 43.0348,235.535 57.5,249.5C 55.9315,252.695 55.0982,256.028 55,259.5C 56.9263,257.461 59.093,255.794 61.5,254.5C 66.1396,258.473 70.4729,262.806 74.5,267.5C 69.3343,270.248 64.3343,273.248 59.5,276.5C 52.5351,270.036 45.7018,263.369 39,256.5C 38.5172,255.552 38.3505,254.552 38.5,253.5C 38.9985,250.171 39.9985,247.005 41.5,244C 32.0102,236.755 22.3435,229.755 12.5,223C 5.5601,218.329 4.89343,212.995 10.5,207C 13.0135,205.748 15.6802,205.248 18.5,205.5 Z"/></g>
<g><path style="opacity:0.958" fill="#f7a014" d="M 18.5,205.5 C 25.5,205.5 32.5,205.5 39.5,205.5C 44.8333,211.167 50.1667,216.833 55.5,222.5C 51.1539,222.334 46.8206,222.501 42.5,223C 47.6667,226.833 52.8333,230.667 58,234.5C 59.9141,239.54 59.7474,244.54 57.5,249.5C 43.0348,235.535 28.7015,221.369 14.5,207C 16.0581,206.79 17.3915,206.29 18.5,205.5 Z"/></g>
<g><path style="opacity:0.979" fill="#f48c18" d="M 98.5,205.5 C 110.505,205.333 122.505,205.5 134.5,206C 140.556,209.116 141.889,213.616 138.5,219.5C 132.824,224.333 126.824,228.666 120.5,232.5C 112.369,223.868 104.036,215.368 95.5,207C 96.7375,206.768 97.7375,206.268 98.5,205.5 Z"/></g>
<g><path style="opacity:0.967" fill="#f37d1a" d="M 189.5,195.5 C 193.559,199.565 197.893,203.232 202.5,206.5C 193.523,219.777 189.857,234.444 191.5,250.5C 185.925,246.433 180.759,241.766 176,236.5C 175.617,237.056 175.117,237.389 174.5,237.5C 175.549,222.016 180.549,208.016 189.5,195.5 Z"/></g>
<g><path style="opacity:0.963" fill="#f69915" d="M 94.5,230.5 C 98.1667,234.833 102.167,238.833 106.5,242.5C 106.389,243.117 106.056,243.617 105.5,244C 110.128,256.717 114.461,269.55 118.5,282.5C 118.376,283.107 118.043,283.44 117.5,283.5C 109.14,275.472 100.807,267.472 92.5,259.5C 90.6314,253.226 88.9648,246.893 87.5,240.5C 87.4944,235.509 89.8277,232.176 94.5,230.5 Z"/></g>
<g><path style="opacity:0.976" fill="#f48619" d="M 191.5,250.5 C 197.059,281.725 215.392,300.392 246.5,306.5C 252.227,312.222 257.56,318.222 262.5,324.5C 254.445,324.23 246.445,324.563 238.5,325.5C 238.631,324.761 238.464,324.094 238,323.5C 217.271,302.938 196.771,282.272 176.5,261.5C 174.729,253.65 174.062,245.65 174.5,237.5C 175.117,237.389 175.617,237.056 176,236.5C 180.759,241.766 185.925,246.433 191.5,250.5 Z"/></g>
<g><path style="opacity:0.971" fill="#ec4524" d="M 456.5,221.5 C 456.351,222.552 456.517,223.552 457,224.5C 460.667,228.167 464.333,231.833 468,235.5C 468.383,234.944 468.883,234.611 469.5,234.5C 473.221,246.164 477.055,257.831 481,269.5C 481.648,278.858 477.481,282.358 468.5,280C 458.316,272.637 448.316,265.137 438.5,257.5C 434.527,252.86 430.194,248.527 425.5,244.5C 430.301,237.921 436.301,236.421 443.5,240C 447.024,243.025 450.691,245.858 454.5,248.5C 454.833,248 455.167,247.5 455.5,247C 453.427,241.449 451.761,235.783 450.5,230C 451.141,226.195 453.141,223.361 456.5,221.5 Z"/></g>
<g><path style="opacity:0.97" fill="#f0661e" d="M 319.5,243.5 C 324.898,248.893 329.898,254.56 334.5,260.5C 332.957,267.462 330.624,274.128 327.5,280.5C 322.56,277.23 318.227,273.23 314.5,268.5C 317.318,260.412 318.984,252.079 319.5,243.5 Z"/></g>
<g><path style="opacity:0.966" fill="#f79f14" d="M 92.5,259.5 C 100.807,267.472 109.14,275.472 117.5,283.5C 117.159,288.362 114.492,291.028 109.5,291.5C 97.264,284.253 85.5974,276.253 74.5,267.5C 70.4729,262.806 66.1396,258.473 61.5,254.5C 65.0077,251.326 69.0077,248.993 73.5,247.5C 80.3402,250.669 86.6735,254.669 92.5,259.5 Z"/></g>
<g><path style="opacity:0.978" fill="#ee5521" d="M 400.5,247.5 C 406.443,255.111 413.109,262.111 420.5,268.5C 414.503,273.834 407.836,278.167 400.5,281.5C 394.187,279.872 391.687,275.872 393,269.5C 395.437,262.021 397.937,254.687 400.5,247.5 Z"/></g>
<g><path style="opacity:0.961" fill="#f58c18" d="M 176.5,261.5 C 196.771,282.272 217.271,302.938 238,323.5C 238.464,324.094 238.631,324.761 238.5,325.5C 232.146,326.371 225.813,327.371 219.5,328.5C 218.448,328.649 217.448,328.483 216.5,328C 212.631,323.963 208.631,320.13 204.5,316.5C 207.21,314.892 210.21,313.725 213.5,313C 193.972,300.976 181.638,283.81 176.5,261.5 Z"/></g>
<g><path style="opacity:0.975" fill="#f9ad12" d="M 38.5,253.5 C 38.3505,254.552 38.5172,255.552 39,256.5C 45.7018,263.369 52.5351,270.036 59.5,276.5C 52.8924,282.478 45.5591,287.478 37.5,291.5C 30.0726,289.653 27.5726,284.986 30,277.5C 32.5684,269.288 35.4017,261.288 38.5,253.5 Z"/></g>
<g><path style="opacity:0.964" fill="#f1711c" d="M 314.5,268.5 C 318.227,273.23 322.56,277.23 327.5,280.5C 323.943,286.896 319.777,292.896 315,298.5C 311.046,302.211 306.879,305.544 302.5,308.5C 298.833,304.5 295.167,300.5 291.5,296.5C 301.404,288.936 309.071,279.603 314.5,268.5 Z"/></g>
<g><path style="opacity:0.975" fill="#f2791b" d="M 291.5,296.5 C 295.167,300.5 298.833,304.5 302.5,308.5C 300.906,309.983 299.24,311.483 297.5,313C 303.461,314.704 309.128,316.871 314.5,319.5C 330.167,335.833 346.167,351.833 362.5,367.5C 361.162,369.67 359.328,371.336 357,372.5C 356.03,374.274 355.196,376.107 354.5,378C 355.984,381.13 357.317,384.297 358.5,387.5C 351.833,381.833 345.167,376.167 338.5,370.5C 340.073,366.354 342.407,362.687 345.5,359.5C 331.524,346.532 315.524,336.865 297.5,330.5C 298.239,330.631 298.906,330.464 299.5,330C 290.964,321.632 282.631,313.132 274.5,304.5C 280.249,302.127 285.916,299.46 291.5,296.5 Z"/></g>
<g><path style="opacity:0.976" fill="#f37f1a" d="M 274.5,304.5 C 282.631,313.132 290.964,321.632 299.5,330C 298.906,330.464 298.239,330.631 297.5,330.5C 286.064,327.213 274.397,325.213 262.5,324.5C 257.56,318.222 252.227,312.222 246.5,306.5C 255.942,307.654 265.276,306.987 274.5,304.5 Z"/></g>
<g><path style="opacity:0.968" fill="#ee5b20" d="M 444.5,316.5 C 444.062,316.435 443.728,316.601 443.5,317C 449.703,323.035 455.703,329.202 461.5,335.5C 454.071,335.391 446.738,334.557 439.5,333C 433.523,328.767 427.356,324.933 421,321.5C 415.449,323.895 410.282,326.895 405.5,330.5C 401.239,324.545 395.905,320.212 389.5,317.5C 391.527,317.662 393.527,317.495 395.5,317C 411.82,300.614 428.153,300.447 444.5,316.5 Z"/></g>
<g><path style="opacity:0.975" fill="#ee5621" d="M 444.5,316.5 C 452.471,317.776 460.471,318.943 468.5,320C 474.723,323.223 479.223,328.057 482,334.5C 483.333,339.833 484.667,345.167 486,350.5C 490.667,355.167 495.333,359.833 500,364.5C 505.251,375.404 504.418,385.737 497.5,395.5C 493.263,392.772 489.429,389.439 486,385.5C 485.517,384.552 485.351,383.552 485.5,382.5C 486.984,379.416 486.818,376.416 485,373.5C 480.64,369.14 476.306,364.806 472,360.5C 469.073,354.126 467.073,347.46 466,340.5C 464.975,338.313 463.475,336.646 461.5,335.5C 455.703,329.202 449.703,323.035 443.5,317C 443.728,316.601 444.062,316.435 444.5,316.5 Z"/></g>
<g><path style="opacity:0.965" fill="#f0681e" d="M 389.5,317.5 C 395.905,320.212 401.239,324.545 405.5,330.5C 403.507,332.163 401.174,333.33 398.5,334C 392.16,334.601 385.826,335.267 379.5,336C 378,336.833 376.833,338 376,339.5C 374.668,343.829 373.502,348.162 372.5,352.5C 368.194,347.527 363.527,342.86 358.5,338.5C 360.469,328.361 366.469,321.861 376.5,319C 380.917,318.772 385.25,318.272 389.5,317.5 Z"/></g>
<g><path style="opacity:0.96" fill="#f1741c" d="M 314.5,319.5 C 330.012,325.505 343.845,334.172 356,345.5C 357.289,343.355 358.122,341.022 358.5,338.5C 363.527,342.86 368.194,347.527 372.5,352.5C 370.912,358.679 367.579,363.679 362.5,367.5C 346.167,351.833 330.167,335.833 314.5,319.5 Z"/></g>
<g><path style="opacity:0.957" fill="#f69716" d="M 204.5,316.5 C 208.631,320.13 212.631,323.963 216.5,328C 217.448,328.483 218.448,328.649 219.5,328.5C 205.29,332.908 191.956,339.241 179.5,347.5C 176.232,342.893 172.565,338.559 168.5,334.5C 179.356,326.405 191.356,320.405 204.5,316.5 Z"/></g>
<g><path style="opacity:0.961" fill="#f0681e" d="M 416.5,343.5 C 417.609,344.29 418.942,344.79 420.5,345C 434.701,359.369 449.035,373.535 463.5,387.5C 463.165,402.508 456.832,414.175 444.5,422.5C 439.533,418.868 434.867,414.868 430.5,410.5C 443.579,404.344 448.745,394.01 446,379.5C 440.336,365.247 429.836,359.08 414.5,361C 406.524,363.486 400.524,368.319 396.5,375.5C 392.167,371.833 388.167,367.833 384.5,363.5C 391.738,351.639 402.404,344.973 416.5,343.5 Z"/></g>
<g><path style="opacity:0.968" fill="#ef611f" d="M 416.5,343.5 C 445.066,343.73 461.066,358.063 464.5,386.5C 464.376,387.107 464.043,387.44 463.5,387.5C 449.035,373.535 434.701,359.369 420.5,345C 418.942,344.79 417.609,344.29 416.5,343.5 Z"/></g>
<g><path style="opacity:0.959" fill="#f7a314" d="M 168.5,334.5 C 172.565,338.559 176.232,342.893 179.5,347.5C 169.259,354.072 160.259,362.072 152.5,371.5C 149.604,367.095 146.104,363.095 142,359.5C 141.329,360.252 140.496,360.586 139.5,360.5C 147.949,350.38 157.615,341.713 168.5,334.5 Z"/></g>
<g><path style="opacity:0.968" fill="#f37f1a" d="M 338.5,370.5 C 345.167,376.167 351.833,381.833 358.5,387.5C 360.656,390.437 362.156,393.771 363,397.5C 363.492,404.9 362.992,412.233 361.5,419.5C 361.631,420.239 361.464,420.906 361,421.5C 356.241,416.234 351.075,411.567 345.5,407.5C 346.537,405.262 346.703,402.929 346,400.5C 342.5,394.502 339.833,388.169 338,381.5C 337.421,377.797 337.588,374.131 338.5,370.5 Z"/></g>
<g><path style="opacity:0.982" fill="#f9af11" d="M 152.5,371.5 C 144.492,381.519 137.492,392.186 131.5,403.5C 127.167,399.833 123.167,395.833 119.5,391.5C 124.598,380.086 131.265,369.752 139.5,360.5C 140.496,360.586 141.329,360.252 142,359.5C 146.104,363.095 149.604,367.095 152.5,371.5 Z"/></g>
<g><path style="opacity:0.972" fill="#ef641f" d="M 485.5,382.5 C 485.351,383.552 485.517,384.552 486,385.5C 489.429,389.439 493.263,392.772 497.5,395.5C 495.256,402.676 494.922,410.009 496.5,417.5C 496.745,427.694 492.412,435.027 483.5,439.5C 480.232,434.893 476.565,430.559 472.5,426.5C 475.34,425.314 477.506,423.314 479,420.5C 479.323,414.239 478.823,408.073 477.5,402C 478.667,394.84 481.333,388.34 485.5,382.5 Z"/></g>
<g><path style="opacity:0.986" fill="#f48619" d="M 345.5,407.5 C 351.075,411.567 356.241,416.234 361,421.5C 361.464,420.906 361.631,420.239 361.5,419.5C 362.5,420.833 363.5,422.167 364.5,423.5C 379.448,440.116 395.115,456.116 411.5,471.5C 409.447,477.275 407.113,482.941 404.5,488.5C 399.56,485.23 395.227,481.23 391.5,476.5C 392.1,473.702 393.1,471.035 394.5,468.5C 386.658,465.824 380.825,460.824 377,453.5C 376.153,455.193 375.32,456.86 374.5,458.5C 366.422,451.927 358.755,444.76 351.5,437C 354.097,436.221 354.097,435.721 351.5,435.5C 345.091,427.19 343.091,417.857 345.5,407.5 Z"/></g>
<g><path style="opacity:0.953" fill="#f2751c" d="M 384.5,363.5 C 388.167,367.833 392.167,371.833 396.5,375.5C 391.419,393.171 397.419,405.338 414.5,412C 420.02,412.929 425.353,412.429 430.5,410.5C 434.867,414.868 439.533,418.868 444.5,422.5C 431.214,430.432 417.214,431.599 402.5,426C 381.846,414.849 374.013,397.683 379,374.5C 379.81,370.213 381.643,366.546 384.5,363.5 Z"/></g>
<g><path style="opacity:0.955" fill="#fbbe0f" d="M 119.5,391.5 C 123.167,395.833 127.167,399.833 131.5,403.5C 127.289,413.803 124.289,424.469 122.5,435.5C 127.5,435.5 132.5,435.5 137.5,435.5C 142.297,440.798 147.297,445.965 152.5,451C 154.708,451.191 156.708,451.691 158.5,452.5C 142.163,452.667 125.83,452.5 109.5,452C 105.981,450.48 103.981,447.814 103.5,444C 105.682,425.416 111.015,407.916 119.5,391.5 Z"/></g>
<g><path style="opacity:0.944" fill="#fab810" d="M 137.5,435.5 C 147.5,435.5 157.5,435.5 167.5,435.5C 166.737,436.268 165.737,436.768 164.5,437C 169.703,442.035 174.703,447.202 179.5,452.5C 172.5,452.5 165.5,452.5 158.5,452.5C 156.708,451.691 154.708,451.191 152.5,451C 147.297,445.965 142.297,440.798 137.5,435.5 Z"/></g>
<g><path style="opacity:0.975" fill="#f9b111" d="M 167.5,435.5 C 175.833,435.5 184.167,435.5 192.5,435.5C 197.297,440.798 202.297,445.965 207.5,451C 209.708,451.191 211.708,451.691 213.5,452.5C 202.167,452.5 190.833,452.5 179.5,452.5C 174.703,447.202 169.703,442.035 164.5,437C 165.737,436.768 166.737,436.268 167.5,435.5 Z"/></g>
<g><path style="opacity:0.94" fill="#f8a513" d="M 224.5,435.5 C 230.833,435.5 237.167,435.5 243.5,435.5C 248.297,440.798 253.297,445.965 258.5,451C 260.708,451.191 262.708,451.691 264.5,452.5C 254.5,452.5 244.5,452.5 234.5,452.5C 229.703,447.202 224.703,442.035 219.5,437C 221.382,436.802 223.048,436.302 224.5,435.5 Z"/></g>
<g><path style="opacity:0.944" fill="#f79f14" d="M 243.5,435.5 C 253.5,435.5 263.5,435.5 273.5,435.5C 272.737,436.268 271.737,436.768 270.5,437C 275.703,442.035 280.703,447.202 285.5,452.5C 278.5,452.5 271.5,452.5 264.5,452.5C 262.708,451.691 260.708,451.191 258.5,451C 253.297,445.965 248.297,440.798 243.5,435.5 Z"/></g>
<g><path style="opacity:0.94" fill="#f69816" d="M 273.5,435.5 C 282.167,435.5 290.833,435.5 299.5,435.5C 304.297,440.798 309.297,445.965 314.5,451C 316.382,451.198 318.048,451.698 319.5,452.5C 308.167,452.5 296.833,452.5 285.5,452.5C 280.703,447.202 275.703,442.035 270.5,437C 271.737,436.768 272.737,436.268 273.5,435.5 Z"/></g>
<g><path style="opacity:0.955" fill="#f59217" d="M 299.5,435.5 C 306.5,435.5 313.5,435.5 320.5,435.5C 321.952,436.302 323.618,436.802 325.5,437C 330.703,442.035 335.703,447.202 340.5,452.5C 333.5,452.5 326.5,452.5 319.5,452.5C 318.048,451.698 316.382,451.198 314.5,451C 309.297,445.965 304.297,440.798 299.5,435.5 Z"/></g>
<g><path style="opacity:0.979" fill="#f48c18" d="M 320.5,435.5 C 330.833,435.5 341.167,435.5 351.5,435.5C 354.097,435.721 354.097,436.221 351.5,437C 358.755,444.76 366.422,451.927 374.5,458.5C 372.574,462.022 370.907,465.688 369.5,469.5C 374.195,469.177 378.861,469.677 383.5,471C 385.458,473.748 387.291,476.582 389,479.5C 389.852,478.429 390.685,477.429 391.5,476.5C 395.227,481.23 399.56,485.23 404.5,488.5C 402.347,492.807 400.18,497.14 398,501.5C 396.568,503.439 394.735,504.772 392.5,505.5C 379.886,491.218 366.553,477.552 352.5,464.5C 354.36,460.615 356.36,456.781 358.5,453C 352.509,452.501 346.509,452.334 340.5,452.5C 335.703,447.202 330.703,442.035 325.5,437C 323.618,436.802 321.952,436.302 320.5,435.5 Z"/></g>
<g><path style="opacity:0.987" fill="#f8ab12" d="M 192.5,435.5 C 203.167,435.5 213.833,435.5 224.5,435.5C 223.048,436.302 221.382,436.802 219.5,437C 224.703,442.035 229.703,447.202 234.5,452.5C 227.5,452.5 220.5,452.5 213.5,452.5C 211.708,451.691 209.708,451.191 207.5,451C 202.297,445.965 197.297,440.798 192.5,435.5 Z"/></g>
<g><path style="opacity:0.971" fill="#f1711c" d="M 472.5,426.5 C 476.565,430.559 480.232,434.893 483.5,439.5C 481.811,440.304 480.145,441.304 478.5,442.5C 484.826,454.643 490.159,467.143 494.5,480C 494.185,487.448 490.518,490.615 483.5,489.5C 477.167,482.833 470.833,476.167 464.5,469.5C 467.176,470.008 469.843,470.175 472.5,470C 470.065,464.296 467.231,458.796 464,453.5C 462.389,457.275 459.889,460.275 456.5,462.5C 452.833,458.5 449.167,454.5 445.5,450.5C 449.307,443.735 453.974,437.569 459.5,432C 463.635,429.597 467.968,427.763 472.5,426.5 Z"/></g>
<g><path style="opacity:0.976" fill="#f37f1a" d="M 364.5,423.5 C 370.847,426.565 377.18,429.732 383.5,433C 387.723,438.224 391.556,443.724 395,449.5C 397.579,451.347 400.412,451.847 403.5,451C 408.023,449.203 412.69,448.036 417.5,447.5C 432.551,463.552 448.218,478.885 464.5,493.5C 462.549,497.229 460.216,500.729 457.5,504C 452.637,506.329 448.137,505.829 444,502.5C 438.208,489.773 432.041,477.273 425.5,465C 418.735,462.644 414.068,464.811 411.5,471.5C 395.115,456.116 379.448,440.116 364.5,423.5 Z"/></g>
<g><path style="opacity:0.96" fill="#f59217" d="M 352.5,464.5 C 366.553,477.552 379.886,491.218 392.5,505.5C 388.869,505.84 385.536,505.006 382.5,503C 379.5,498 376.5,493 373.5,488C 367.774,488.176 362.107,489.009 356.5,490.5C 348.755,488.924 345.588,484.257 347,476.5C 349.121,472.593 350.955,468.593 352.5,464.5 Z"/></g>
<g><path style="opacity:0.963" fill="#f2791b" d="M 445.5,450.5 C 449.167,454.5 452.833,458.5 456.5,462.5C 453.96,465.607 450.627,467.44 446.5,468C 448.189,471.879 450.022,475.712 452,479.5C 454.045,476.577 456.212,473.743 458.5,471C 460.345,469.872 462.345,469.372 464.5,469.5C 470.833,476.167 477.167,482.833 483.5,489.5C 478.941,489.289 474.441,488.622 470,487.5C 467.32,488.681 465.487,490.681 464.5,493.5C 448.218,478.885 432.551,463.552 417.5,447.5C 418.577,446.982 419.744,446.648 421,446.5C 427.717,447.961 434.384,449.628 441,451.5C 442.533,451.227 444.033,450.894 445.5,450.5 Z"/></g>
</svg>
