<?xml version="1.0" encoding="UTF-8"?>
<!DOCTYPE svg PUBLIC "-//W3C//DTD SVG 1.1//EN" "http://www.w3.org/Graphics/SVG/1.1/DTD/svg11.dtd">
<svg xmlns="http://www.w3.org/2000/svg" version="1.1" width="512px" height="512px" style="shape-rendering:geometricPrecision; text-rendering:geometricPrecision; image-rendering:optimizeQuality; fill-rule:evenodd; clip-rule:evenodd" xmlns:xlink="http://www.w3.org/1999/xlink">
<g><path style="opacity:0.984" fill="#f7a729" d="M 264.5,49.5 C 264.5,62.8333 264.5,76.1667 264.5,89.5C 261.651,87.5753 258.651,85.9086 255.5,84.5C 251.572,86.4288 247.905,88.7622 244.5,91.5C 244.5,78.1667 244.5,64.8333 244.5,51.5C 245.749,49.8639 247.416,48.6972 249.5,48C 254.72,47.0171 259.72,47.5171 264.5,49.5 Z"/></g>
<g><path style="opacity:0.98" fill="#f6a12e" d="M 264.5,49.5 C 271.714,54.2669 278.714,59.2669 285.5,64.5C 285.829,77.6774 285.495,90.6774 284.5,103.5C 277.534,99.1901 270.867,94.5235 264.5,89.5C 264.5,76.1667 264.5,62.8333 264.5,49.5 Z"/></g>
<g><path style="opacity:0.98" fill="#f49a35" d="M 285.5,64.5 C 293.728,69.1066 301.394,74.4399 308.5,80.5C 308.829,93.6774 308.495,106.677 307.5,119.5C 299.621,114.401 291.955,109.067 284.5,103.5C 285.495,90.6774 285.829,77.6774 285.5,64.5 Z"/></g>
<g><path style="opacity:0.989" fill="#f9b21f" d="M 244.5,51.5 C 244.5,64.8333 244.5,78.1667 244.5,91.5C 234.34,98.7475 224.006,105.747 213.5,112.5C 212.34,100.007 212.173,87.3401 213,74.5C 214.039,73.7562 214.539,72.7562 214.5,71.5C 224.246,64.4152 234.246,57.7486 244.5,51.5 Z"/></g>
<g><path style="opacity:0.986" fill="#fab819" d="M 214.5,71.5 C 214.539,72.7562 214.039,73.7562 213,74.5C 212.173,87.3401 212.34,100.007 213.5,112.5C 207.464,117.191 201.131,121.525 194.5,125.5C 193.505,112.677 193.171,99.6774 193.5,86.5C 200.286,81.2669 207.286,76.2669 214.5,71.5 Z"/></g>
<g><path style="opacity:0.989" fill="#f3933b" d="M 308.5,80.5 C 316.754,85.4152 324.754,90.7486 332.5,96.5C 332.333,109.504 332.5,122.504 333,135.5C 334.38,136.256 334.547,136.922 333.5,137.5C 324.535,131.857 315.868,125.857 307.5,119.5C 308.495,106.677 308.829,93.6774 308.5,80.5 Z"/></g>
<g><path style="opacity:0.979" fill="#fbbd14" d="M 193.5,86.5 C 193.171,99.6774 193.505,112.677 194.5,125.5C 190.135,129.189 185.469,132.522 180.5,135.5C 179.505,122.677 179.171,109.677 179.5,96.5C 183.865,92.8108 188.531,89.4775 193.5,86.5 Z"/></g>
<g><path style="opacity:0.984" fill="#f2883e" d="M 332.5,96.5 C 342.537,103.513 352.537,110.513 362.5,117.5C 361.505,130.323 361.171,143.323 361.5,156.5C 351.812,150.659 342.479,144.325 333.5,137.5C 334.547,136.922 334.38,136.256 333,135.5C 332.5,122.504 332.333,109.504 332.5,96.5 Z"/></g>
<g><path style="opacity:0.976" fill="#fcc70e" d="M 179.5,96.5 C 179.171,109.677 179.505,122.677 180.5,135.5C 157.871,151.154 135.204,166.821 112.5,182.5C 111.505,169.677 111.171,156.677 111.5,143.5C 133.81,127.343 156.477,111.676 179.5,96.5 Z"/></g>
<g><path style="opacity:0.988" fill="#f0803d" d="M 362.5,117.5 C 367.833,121.167 373.167,124.833 378.5,128.5C 378.829,141.677 378.495,154.677 377.5,167.5C 371.612,164.607 366.278,160.94 361.5,156.5C 361.171,143.323 361.505,130.323 362.5,117.5 Z"/></g>
<g><path style="opacity:0.983" fill="#ef793d" d="M 378.5,128.5 C 383.804,131.812 388.804,135.479 393.5,139.5C 394.147,152.544 393.48,165.211 391.5,177.5C 386.443,174.645 381.777,171.312 377.5,167.5C 378.495,154.677 378.829,141.677 378.5,128.5 Z"/></g>
<g><path style="opacity:0.982" fill="#fdcf15" d="M 111.5,143.5 C 111.171,156.677 111.505,169.677 112.5,182.5C 106.133,187.523 99.4665,192.19 92.5,196.5C 92.5,183.167 92.5,169.833 92.5,156.5C 98.5537,151.783 104.887,147.45 111.5,143.5 Z"/></g>
<g><path style="opacity:0.998" fill="#ee6f3c" d="M 393.5,139.5 C 403.188,145.341 412.521,151.675 421.5,158.5C 420.501,249.332 420.167,340.332 420.5,431.5C 416.505,433.165 412.505,434.832 408.5,436.5C 408.506,365.862 408.506,295.528 408.5,225.5C 408.918,224.778 409.584,224.278 410.5,224C 404.843,223.501 399.176,223.334 393.5,223.5C 393.5,212.833 393.5,202.167 393.5,191.5C 399.176,191.666 404.843,191.499 410.5,191C 403.986,186.637 397.653,182.137 391.5,177.5C 393.48,165.211 394.147,152.544 393.5,139.5 Z"/></g>
<g><path style="opacity:0.997" fill="#ed683b" d="M 421.5,158.5 C 426.132,161.143 430.465,164.143 434.5,167.5C 434.5,194.167 434.5,220.833 434.5,247.5C 433.828,248.267 432.995,248.934 432,249.5C 431.667,306.833 431.333,364.167 431,421.5C 428.947,426.387 425.447,429.721 420.5,431.5C 420.167,340.332 420.501,249.332 421.5,158.5 Z"/></g>
<g><path style="opacity:0.99" fill="#fed51b" d="M 92.5,156.5 C 92.5,169.833 92.5,183.167 92.5,196.5C 87.3139,199.925 82.3139,203.592 77.5,207.5C 82.3139,211.408 87.3139,215.075 92.5,218.5C 92.8299,289.571 92.4965,360.571 91.5,431.5C 85.9799,430.149 82.1465,426.816 80,421.5C 79.6667,364.167 79.3333,306.833 79,249.5C 77.4815,248.837 76.3149,247.837 75.5,246.5C 76.1575,220.478 75.4908,194.812 73.5,169.5C 79.5358,164.809 85.8691,160.475 92.5,156.5 Z"/></g>
<g><path style="opacity:0.987" fill="#fedc22" d="M 73.5,169.5 C 75.4908,194.812 76.1575,220.478 75.5,246.5C 71.6082,244.938 68.2749,242.605 65.5,239.5C 64.1667,218.167 64.1667,196.833 65.5,175.5C 67.8599,173.147 70.5265,171.147 73.5,169.5 Z"/></g>
<g><path style="opacity:0.99" fill="#ec5c3b" d="M 434.5,167.5 C 439.469,170.478 444.135,173.811 448.5,177.5C 448.832,226.336 448.499,275.003 447.5,323.5C 447.833,295.492 447.5,267.492 446.5,239.5C 442.754,242.585 438.754,245.251 434.5,247.5C 434.5,220.833 434.5,194.167 434.5,167.5 Z"/></g>
<g><path style="opacity:0.995" fill="#eb543a" d="M 448.5,177.5 C 452.025,178.759 455.025,180.759 457.5,183.5C 456.17,233.736 456.17,284.069 457.5,334.5C 452.094,332.759 448.761,329.093 447.5,323.5C 448.499,275.003 448.832,226.336 448.5,177.5 Z"/></g>
<g><path style="opacity:0.983" fill="#fee329" d="M 65.5,175.5 C 64.1667,196.833 64.1667,218.167 65.5,239.5C 59.5818,236.254 53.9151,232.587 48.5,228.5C 48.5,214.5 48.5,200.5 48.5,186.5C 53.9151,182.413 59.5818,178.746 65.5,175.5 Z"/></g>
<g><path style="opacity:0.995" fill="#ea4d3a" d="M 457.5,183.5 C 460.709,185.265 463.709,187.265 466.5,189.5C 464.505,237.822 463.838,286.489 464.5,335.5C 461.941,335.802 459.607,335.468 457.5,334.5C 456.17,284.069 456.17,233.736 457.5,183.5 Z"/></g>
<g><path style="opacity:0.962" fill="#feec33" d="M 48.5,186.5 C 48.5,200.5 48.5,214.5 48.5,228.5C 43.4272,225.206 38.5939,221.54 34,217.5C 30.6667,210.833 30.6667,204.167 34,197.5C 38.5939,193.46 43.4272,189.794 48.5,186.5 Z"/></g>
<g><path style="opacity:0.996" fill="#ea473a" d="M 466.5,189.5 C 468.389,190.604 470.055,191.937 471.5,193.5C 471.172,240.239 471.505,286.905 472.5,333.5C 470.087,335.051 467.421,335.717 464.5,335.5C 463.838,286.489 464.505,237.822 466.5,189.5 Z"/></g>
<g><path style="opacity:1" fill="#f7a729" d="M 272.5,191.5 C 272.5,202.167 272.5,212.833 272.5,223.5C 264.826,223.666 257.159,223.5 249.5,223C 242.513,220.193 239.18,215.027 239.5,207.5C 239.18,199.973 242.513,194.807 249.5,192C 257.159,191.5 264.826,191.334 272.5,191.5 Z"/></g>
<g><path style="opacity:1" fill="#f59f30" d="M 272.5,191.5 C 278.833,191.5 285.167,191.5 291.5,191.5C 291.5,202.167 291.5,212.833 291.5,223.5C 285.167,223.5 278.833,223.5 272.5,223.5C 272.5,212.833 272.5,202.167 272.5,191.5 Z"/></g>
<g><path style="opacity:1" fill="#f49935" d="M 291.5,191.5 C 297.167,191.5 302.833,191.5 308.5,191.5C 308.5,202.167 308.5,212.833 308.5,223.5C 302.833,223.5 297.167,223.5 291.5,223.5C 291.5,212.833 291.5,202.167 291.5,191.5 Z"/></g>
<g><path style="opacity:1" fill="#f3933b" d="M 308.5,191.5 C 316.5,191.5 324.5,191.5 332.5,191.5C 332.5,202.167 332.5,212.833 332.5,223.5C 324.5,223.5 316.5,223.5 308.5,223.5C 308.5,212.833 308.5,202.167 308.5,191.5 Z"/></g>
<g><path style="opacity:1" fill="#f1883e" d="M 332.5,191.5 C 342.167,191.5 351.833,191.5 361.5,191.5C 361.5,202.167 361.5,212.833 361.5,223.5C 351.833,223.5 342.167,223.5 332.5,223.5C 332.5,212.833 332.5,202.167 332.5,191.5 Z"/></g>
<g><path style="opacity:1" fill="#f0803e" d="M 361.5,191.5 C 367.167,191.5 372.833,191.5 378.5,191.5C 378.5,202.167 378.5,212.833 378.5,223.5C 372.833,223.5 367.167,223.5 361.5,223.5C 361.5,212.833 361.5,202.167 361.5,191.5 Z"/></g>
<g><path style="opacity:1" fill="#ef793d" d="M 378.5,191.5 C 383.5,191.5 388.5,191.5 393.5,191.5C 393.5,202.167 393.5,212.833 393.5,223.5C 388.5,223.5 383.5,223.5 378.5,223.5C 378.5,212.833 378.5,202.167 378.5,191.5 Z"/></g>
<g><path style="opacity:0.993" fill="#e9413a" d="M 471.5,193.5 C 475.153,194.989 477.653,197.656 479,201.5C 479.667,242.833 479.667,284.167 479,325.5C 477.726,328.936 475.559,331.603 472.5,333.5C 471.505,286.905 471.172,240.239 471.5,193.5 Z"/></g>
<g><path style="opacity:0.997" fill="#fdcf15" d="M 92.5,218.5 C 99.4665,222.81 106.133,227.477 112.5,232.5C 111.504,245.656 111.171,258.99 111.5,272.5C 111.5,316.5 111.5,360.5 111.5,404.5C 111.828,416.345 111.495,428.012 110.5,439.5C 103.764,437.594 97.4308,434.927 91.5,431.5C 92.4965,360.571 92.8299,289.571 92.5,218.5 Z"/></g>
<g><path style="opacity:0.994" fill="#ee723c" d="M 408.5,225.5 C 408.506,295.528 408.506,365.862 408.5,436.5C 403.617,438.774 398.617,440.774 393.5,442.5C 393.5,430.833 393.5,419.167 393.5,407.5C 395.109,406.229 396.942,405.229 399,404.5C 399.667,360.5 399.667,316.5 399,272.5C 397.259,273.758 395.426,274.758 393.5,275.5C 394.147,262.456 393.48,249.789 391.5,237.5C 396.954,233.267 402.62,229.267 408.5,225.5 Z"/></g>
<g><path style="opacity:0.976" fill="#fcc70e" d="M 112.5,232.5 C 135.204,248.179 157.871,263.846 180.5,279.5C 179.505,292.323 179.171,305.323 179.5,318.5C 156.862,303.177 134.195,287.843 111.5,272.5C 111.171,258.99 111.504,245.656 112.5,232.5 Z"/></g>
<g><path style="opacity:0.983" fill="#ef793d" d="M 391.5,237.5 C 393.48,249.789 394.147,262.456 393.5,275.5C 388.804,279.521 383.804,283.188 378.5,286.5C 378.829,273.323 378.495,260.323 377.5,247.5C 381.777,243.688 386.443,240.355 391.5,237.5 Z"/></g>
<g><path style="opacity:0.988" fill="#f0803d" d="M 377.5,247.5 C 378.495,260.323 378.829,273.323 378.5,286.5C 373.167,290.167 367.833,293.833 362.5,297.5C 361.505,284.677 361.171,271.677 361.5,258.5C 366.278,254.06 371.612,250.393 377.5,247.5 Z"/></g>
<g><path style="opacity:0.986" fill="#f28a3e" d="M 361.5,258.5 C 361.171,271.677 361.505,284.677 362.5,297.5C 352.537,304.487 342.537,311.487 332.5,318.5C 332.333,305.496 332.5,292.496 333,279.5C 334.38,278.744 334.547,278.078 333.5,277.5C 342.479,270.675 351.812,264.341 361.5,258.5 Z"/></g>
<g><path style="opacity:0.981" fill="#fbbd14" d="M 180.5,279.5 C 185.469,282.478 190.135,285.811 194.5,289.5C 193.505,302.323 193.171,315.323 193.5,328.5C 188.531,325.522 183.865,322.189 179.5,318.5C 179.171,305.323 179.505,292.323 180.5,279.5 Z"/></g>
<g><path style="opacity:0.989" fill="#f3933b" d="M 333.5,277.5 C 334.547,278.078 334.38,278.744 333,279.5C 332.5,292.496 332.333,305.496 332.5,318.5C 324.754,324.251 316.754,329.585 308.5,334.5C 308.829,321.323 308.495,308.323 307.5,295.5C 315.868,289.143 324.535,283.143 333.5,277.5 Z"/></g>
<g><path style="opacity:0.98" fill="#f49a35" d="M 307.5,295.5 C 308.495,308.323 308.829,321.323 308.5,334.5C 303.046,338.733 297.38,342.733 291.5,346.5C 291.5,333.167 291.5,319.833 291.5,306.5C 296.796,302.846 302.129,299.179 307.5,295.5 Z"/></g>
<g><path style="opacity:0.989" fill="#f9b51c" d="M 194.5,289.5 C 204.887,296.02 214.887,303.02 224.5,310.5C 223.833,323.167 223.167,335.833 222.5,348.5C 212.622,342.067 202.955,335.401 193.5,328.5C 193.171,315.323 193.505,302.323 194.5,289.5 Z"/></g>
<g><path style="opacity:0.987" fill="#f8af22" d="M 224.5,310.5 C 231.68,314.922 238.68,319.588 245.5,324.5C 244.505,337.323 244.171,350.323 244.5,363.5C 236.812,358.992 229.478,353.992 222.5,348.5C 223.167,335.833 223.833,323.167 224.5,310.5 Z"/></g>
<g><path style="opacity:0.981" fill="#f59f30" d="M 291.5,306.5 C 291.5,319.833 291.5,333.167 291.5,346.5C 285.852,350.993 279.852,354.993 273.5,358.5C 272.505,345.677 272.171,332.677 272.5,319.5C 278.66,314.92 284.993,310.586 291.5,306.5 Z"/></g>
<g><path style="opacity:0.983" fill="#f7a629" d="M 272.5,319.5 C 272.171,332.677 272.505,345.677 273.5,358.5C 267.267,366.108 259.267,368.941 249.5,367C 247.416,366.303 245.749,365.136 244.5,363.5C 244.171,350.323 244.505,337.323 245.5,324.5C 248.578,326.908 251.911,328.908 255.5,330.5C 261.429,327.237 267.096,323.57 272.5,319.5 Z"/></g>
<g><path style="opacity:0.98" fill="#fcc70e" d="M 111.5,404.5 C 132.151,413.495 153.484,420.495 175.5,425.5C 174.523,436.752 174.189,448.086 174.5,459.5C 152.39,454.979 131.057,448.312 110.5,439.5C 111.495,428.012 111.828,416.345 111.5,404.5 Z"/></g>
<g><path style="opacity:0.981" fill="#ef793c" d="M 393.5,407.5 C 393.5,419.167 393.5,430.833 393.5,442.5C 388.99,444.559 384.323,446.226 379.5,447.5C 378.522,435.914 378.189,424.247 378.5,412.5C 383.438,410.632 388.438,408.965 393.5,407.5 Z"/></g>
<g><path style="opacity:0.984" fill="#f0803d" d="M 378.5,412.5 C 378.189,424.247 378.522,435.914 379.5,447.5C 373.563,449.701 367.563,451.701 361.5,453.5C 361.5,441.833 361.5,430.167 361.5,418.5C 367.323,416.893 372.989,414.893 378.5,412.5 Z"/></g>
<g><path style="opacity:0.986" fill="#f1863e" d="M 361.5,418.5 C 361.5,430.167 361.5,441.833 361.5,453.5C 356.905,454.815 352.239,455.815 347.5,456.5C 346.505,445.679 346.172,434.679 346.5,423.5C 351.368,421.693 356.368,420.027 361.5,418.5 Z"/></g>
<g><path style="opacity:0.986" fill="#f28c3f" d="M 346.5,423.5 C 346.172,434.679 346.505,445.679 347.5,456.5C 343.001,458.128 338.334,459.461 333.5,460.5C 332.167,449.167 332.167,437.833 333.5,426.5C 337.767,425.302 342.1,424.302 346.5,423.5 Z"/></g>
<g><path style="opacity:0.984" fill="#fbbe13" d="M 175.5,425.5 C 181.698,427.34 188.031,428.673 194.5,429.5C 194.192,440.805 193.192,451.805 191.5,462.5C 185.727,462.038 180.061,461.038 174.5,459.5C 174.189,448.086 174.523,436.752 175.5,425.5 Z"/></g>
<g><path style="opacity:0.986" fill="#f3933b" d="M 333.5,426.5 C 332.167,437.833 332.167,449.167 333.5,460.5C 324.903,462.266 316.237,463.599 307.5,464.5C 308.477,453.581 308.81,442.581 308.5,431.5C 316.778,429.711 325.112,428.044 333.5,426.5 Z"/></g>
<g><path style="opacity:0.987" fill="#fab819" d="M 194.5,429.5 C 201.575,430.955 208.575,432.288 215.5,433.5C 214.5,433.5 213.5,433.5 212.5,433.5C 212.5,444.167 212.5,454.833 212.5,465.5C 205.251,465.322 198.251,464.322 191.5,462.5C 193.192,451.805 194.192,440.805 194.5,429.5 Z"/></g>
<g><path style="opacity:0.982" fill="#f49935" d="M 308.5,431.5 C 308.81,442.581 308.477,453.581 307.5,464.5C 302.27,465.654 296.936,466.32 291.5,466.5C 290.891,455.245 291.558,444.245 293.5,433.5C 298.453,432.589 303.453,431.922 308.5,431.5 Z"/></g>
<g><path style="opacity:0.984" fill="#f9b120" d="M 215.5,433.5 C 221.829,433.9 228.162,434.233 234.5,434.5C 234.5,445.5 234.5,456.5 234.5,467.5C 226.944,467.69 219.611,467.023 212.5,465.5C 212.5,454.833 212.5,444.167 212.5,433.5C 213.5,433.5 214.5,433.5 215.5,433.5 Z"/></g>
<g><path style="opacity:0.982" fill="#f59f30" d="M 293.5,433.5 C 291.558,444.245 290.891,455.245 291.5,466.5C 285.182,467.214 278.849,467.88 272.5,468.5C 272.5,457.5 272.5,446.5 272.5,435.5C 279.323,434.509 286.323,433.842 293.5,433.5 Z"/></g>
<g><path style="opacity:0.974" fill="#f7ab26" d="M 234.5,434.5 C 239.797,435.275 245.13,435.608 250.5,435.5C 251.209,436.404 252.209,436.737 253.5,436.5C 253.5,446.833 253.5,457.167 253.5,467.5C 254.791,467.263 255.791,467.596 256.5,468.5C 249.08,468.797 241.746,468.464 234.5,467.5C 234.5,456.5 234.5,445.5 234.5,434.5 Z"/></g>
<g><path style="opacity:0.972" fill="#f6a42b" d="M 250.5,435.5 C 257.833,435.5 265.167,435.5 272.5,435.5C 272.5,446.5 272.5,457.5 272.5,468.5C 267.167,468.5 261.833,468.5 256.5,468.5C 255.791,467.596 254.791,467.263 253.5,467.5C 253.5,457.167 253.5,446.833 253.5,436.5C 252.209,436.737 251.209,436.404 250.5,435.5 Z"/></g>
</svg>
