<?xml version="1.0" encoding="UTF-8"?>
<!DOCTYPE svg PUBLIC "-//W3C//DTD SVG 1.1//EN" "http://www.w3.org/Graphics/SVG/1.1/DTD/svg11.dtd">
<svg xmlns="http://www.w3.org/2000/svg" version="1.1" width="512px" height="512px" style="shape-rendering:geometricPrecision; text-rendering:geometricPrecision; image-rendering:optimizeQuality; fill-rule:evenodd; clip-rule:evenodd" xmlns:xlink="http://www.w3.org/1999/xlink">
<g><path style="opacity:1" fill="#ec4924" d="M 254.5,7.5 C 259.5,12.8333 264.5,18.1667 269.5,23.5C 255.833,23.5 242.167,23.5 228.5,23.5C 227.63,28.2231 225.964,32.5564 223.5,36.5C 219.167,32.5 214.833,28.5 210.5,24.5C 211.928,18.3751 214.594,12.8751 218.5,8C 230.495,7.50013 242.495,7.33346 254.5,7.5 Z"/></g>
<g><path style="opacity:0.976" fill="#eb4025" d="M 254.5,7.5 C 267.171,7.33345 279.838,7.50012 292.5,8C 294.617,9.73092 296.117,11.8976 297,14.5C 301.068,25.5389 305.235,36.5389 309.5,47.5C 328.638,52.9329 346.805,60.5995 364,70.5C 366.221,69.5941 368.388,68.5941 370.5,67.5C 374.5,71.8333 378.5,76.1667 382.5,80.5C 377.378,83.2249 372.045,85.7249 366.5,88C 364.167,88.6667 361.833,88.6667 359.5,88C 340.18,76.2236 319.513,67.5569 297.5,62C 291.519,49.5399 286.519,36.7065 282.5,23.5C 278.167,23.5 273.833,23.5 269.5,23.5C 264.5,18.1667 259.5,12.8333 254.5,7.5 Z"/></g>
<g><path style="opacity:0.966" fill="#ee5821" d="M 210.5,24.5 C 214.833,28.5 219.167,32.5 223.5,36.5C 220.909,45.0221 217.742,53.3555 214,61.5C 208.774,64.0156 203.274,65.6823 197.5,66.5C 193.5,61.8333 189.167,57.5 184.5,53.5C 190.063,51.5325 195.73,49.5325 201.5,47.5C 204.312,39.7257 207.312,32.059 210.5,24.5 Z"/></g>
<g><path style="opacity:0.968" fill="#ef6020" d="M 184.5,53.5 C 189.167,57.5 193.5,61.8333 197.5,66.5C 190.825,68.9518 184.158,71.6185 177.5,74.5C 173.5,70.1667 169.5,65.8333 165.5,61.5C 171.42,58.0456 177.753,55.379 184.5,53.5 Z"/></g>
<g><path style="opacity:0.963" fill="#f16e1d" d="M 141.5,68.5 C 145.476,74.1651 150.476,79.4985 156.5,84.5C 153.305,88.0872 149.305,89.2538 144.5,88C 133.392,83.0291 122.225,78.1957 111,73.5C 107.011,76.6561 103.177,79.9894 99.5,83.5C 95.8333,79.5 92.1667,75.5 88.5,71.5C 93.2969,66.202 98.2969,61.0354 103.5,56C 105.199,55.0419 107.033,54.5419 109,54.5C 120.189,58.5017 131.022,63.1684 141.5,68.5 Z"/></g>
<g><path style="opacity:0.948" fill="#e93328" d="M 442.5,141.5 C 439.23,136.56 435.23,132.227 430.5,128.5C 433.284,122.29 435.451,115.956 437,109.5C 425.167,97.6667 413.333,85.8333 401.5,74C 395.044,75.549 388.71,77.7156 382.5,80.5C 378.5,76.1667 374.5,71.8333 370.5,67.5C 379.846,63.4371 389.179,59.2704 398.5,55C 400.833,54.3333 403.167,54.3333 405.5,55C 422.305,70.8043 438.805,86.971 455,103.5C 456.457,106.366 456.79,109.366 456,112.5C 451.768,122.397 447.268,132.063 442.5,141.5 Z"/></g>
<g><path style="opacity:0.965" fill="#f0661e" d="M 165.5,61.5 C 169.5,65.8333 173.5,70.1667 177.5,74.5C 170.352,77.5743 163.352,80.9076 156.5,84.5C 150.476,79.4985 145.476,74.1651 141.5,68.5C 143.441,68.8693 145.275,69.536 147,70.5C 153.02,67.0725 159.187,64.0725 165.5,61.5 Z"/></g>
<g><path style="opacity:0.955" fill="#f37d1a" d="M 88.5,71.5 C 92.1667,75.5 95.8333,79.5 99.5,83.5C 91.2023,92.2983 82.7023,100.965 74,109.5C 74.4838,112.839 75.3172,116.173 76.5,119.5C 70.4447,113.44 64.1114,107.774 57.5,102.5C 67.5,91.8333 77.8333,81.5 88.5,71.5 Z"/></g>
<g><path style="opacity:0.973" fill="#f48619" d="M 57.5,102.5 C 64.1114,107.774 70.4447,113.44 76.5,119.5C 80.8318,127.504 84.6652,135.837 88,144.5C 89.0536,148.655 88.2202,152.322 85.5,155.5C 79.5,150.5 73.5,145.5 67.5,140.5C 63.4371,131.154 59.2704,121.821 55,112.5C 53.8634,108.537 54.6967,105.204 57.5,102.5 Z"/></g>
<g><path style="opacity:0.969" fill="#ee5621" d="M 300.5,111.5 C 299.761,111.369 299.094,111.536 298.5,112C 308.702,122.035 318.702,132.202 328.5,142.5C 305.263,128.203 279.93,121.203 252.5,121.5C 247.473,115.806 242.14,110.473 236.5,105.5C 258.416,102.799 279.749,104.799 300.5,111.5 Z"/></g>
<g><path style="opacity:0.959" fill="#ef6020" d="M 236.5,105.5 C 242.14,110.473 247.473,115.806 252.5,121.5C 244.003,121.477 235.67,122.477 227.5,124.5C 223,118.653 217.667,113.986 211.5,110.5C 219.732,108.359 228.065,106.692 236.5,105.5 Z"/></g>
<g><path style="opacity:0.973" fill="#f0661e" d="M 211.5,110.5 C 217.667,113.986 223,118.653 227.5,124.5C 219.383,126.428 211.383,128.761 203.5,131.5C 199.369,127.87 195.369,124.037 191.5,120C 192.056,119.617 192.389,119.117 192.5,118.5C 198.436,115.071 204.769,112.405 211.5,110.5 Z"/></g>
<g><path style="opacity:0.973" fill="#ed5022" d="M 300.5,111.5 C 346.285,126.782 378.452,156.782 397,201.5C 402.066,215.763 405.233,230.43 406.5,245.5C 400.167,240.167 393.833,234.833 387.5,229.5C 379.02,192.862 359.354,163.862 328.5,142.5C 318.702,132.202 308.702,122.035 298.5,112C 299.094,111.536 299.761,111.369 300.5,111.5 Z"/></g>
<g><path style="opacity:0.966" fill="#f16f1d" d="M 192.5,118.5 C 192.389,119.117 192.056,119.617 191.5,120C 195.369,124.037 199.369,127.87 203.5,131.5C 191.231,136.969 179.897,143.969 169.5,152.5C 165.441,148.435 161.107,144.768 156.5,141.5C 167.136,131.84 179.136,124.173 192.5,118.5 Z"/></g>
<g><path style="opacity:0.966" fill="#f58c18" d="M 67.5,140.5 C 73.5,145.5 79.5,150.5 85.5,155.5C 81.9118,161.675 78.5785,168.009 75.5,174.5C 70.3465,170.69 66.3465,166.024 63.5,160.5C 65.68,155.975 68.0133,151.475 70.5,147C 69.5941,144.779 68.5941,142.612 67.5,140.5 Z"/></g>
<g><path style="opacity:0.969" fill="#f27d1a" d="M 156.5,141.5 C 161.107,144.768 165.441,148.435 169.5,152.5C 159.74,160.591 151.407,169.924 144.5,180.5C 140.167,176.833 136.167,172.833 132.5,168.5C 139.021,158.305 147.021,149.305 156.5,141.5 Z"/></g>
<g><path style="opacity:0.962" fill="#f59317" d="M 63.5,160.5 C 66.3465,166.024 70.3465,170.69 75.5,174.5C 72.8885,180.725 70.5551,187.058 68.5,193.5C 63.9281,190.437 59.7615,186.77 56,182.5C 55.5172,181.552 55.3505,180.552 55.5,179.5C 57.3727,172.764 60.0394,166.43 63.5,160.5 Z"/></g>
<g><path style="opacity:0.97" fill="#f0671e" d="M 279.5,178.5 C 280.552,178.351 281.552,178.517 282.5,179C 286.5,183 290.5,187 294.5,191C 293.906,191.464 293.239,191.631 292.5,191.5C 282.787,193.566 279.12,199.566 281.5,209.5C 275.833,204.167 270.167,198.833 264.5,193.5C 265.029,183.519 260.363,178.519 250.5,178.5C 246.167,174.833 242.167,170.833 238.5,166.5C 249.132,159.715 259.799,159.882 270.5,167C 274.509,170.161 277.509,173.994 279.5,178.5 Z"/></g>
<g><path style="opacity:0.974" fill="#f1711c" d="M 238.5,166.5 C 242.167,170.833 246.167,174.833 250.5,178.5C 246.423,180.086 243.923,183.086 243,187.5C 242.5,194.158 242.334,200.825 242.5,207.5C 251.417,207.874 258.583,211.541 264,218.5C 264.5,210.173 264.666,201.84 264.5,193.5C 270.167,198.833 275.833,204.167 281.5,209.5C 281.333,222.504 281.5,235.504 282,248.5C 285.293,255.056 290.46,257.056 297.5,254.5C 301.898,257.895 305.564,261.895 308.5,266.5C 305.94,269.537 302.607,271.371 298.5,272C 293.98,272.814 289.646,272.647 285.5,271.5C 286.239,271.631 286.906,271.464 287.5,271C 276.298,259.631 264.965,248.465 253.5,237.5C 252.788,229.455 248.455,225.122 240.5,224.5C 235.167,218.833 229.833,213.167 224.5,207.5C 225.648,203.019 225.815,198.352 225,193.5C 219.958,185.592 213.792,184.592 206.5,190.5C 202.833,186.167 198.833,182.167 194.5,178.5C 204.902,168.756 216.569,167.089 229.5,173.5C 232.252,170.737 235.252,168.403 238.5,166.5 Z"/></g>
<g><path style="opacity:0.972" fill="#f48719" d="M 132.5,168.5 C 136.167,172.833 140.167,176.833 144.5,180.5C 138.437,189.295 133.437,198.629 129.5,208.5C 126.269,203.761 122.436,199.428 118,195.5C 117.617,196.056 117.117,196.389 116.5,196.5C 120.32,186.181 125.653,176.848 132.5,168.5 Z"/></g>
<g><path style="opacity:0.938" fill="#f2791b" d="M 194.5,178.5 C 198.833,182.167 202.833,186.167 206.5,190.5C 204.717,195.975 204.051,201.641 204.5,207.5C 211.167,207.5 217.833,207.5 224.5,207.5C 229.833,213.167 235.167,218.833 240.5,224.5C 226.5,224.5 212.5,224.5 198.5,224.5C 202.647,223.675 206.981,223.175 211.5,223C 204,215.5 196.5,208 189,200.5C 188.79,202.058 188.29,203.391 187.5,204.5C 186.108,194.727 188.442,186.06 194.5,178.5 Z"/></g>
<g><path style="opacity:0.959" fill="#f69915" d="M 55.5,179.5 C 55.3505,180.552 55.5172,181.552 56,182.5C 59.7615,186.77 63.9281,190.437 68.5,193.5C 66.3971,200.411 64.0638,207.245 61.5,214C 60.255,214.791 58.9217,215.291 57.5,215.5C 52.5584,211.897 47.8918,207.897 43.5,203.5C 44.6412,202.661 45.9745,201.994 47.5,201.5C 49.877,193.945 52.5437,186.612 55.5,179.5 Z"/></g>
<g><path style="opacity:0.964" fill="#f0671e" d="M 302.5,199.5 C 308.167,204.833 313.833,210.167 319.5,215.5C 319.5,226.167 319.5,236.833 319.5,247.5C 314.202,242.703 309.035,237.703 304,232.5C 303.79,234.058 303.29,235.391 302.5,236.5C 302.5,224.167 302.5,211.833 302.5,199.5 Z"/></g>
<g><path style="opacity:0.979" fill="#f37f1a" d="M 198.5,224.5 C 192.624,224.386 186.958,225.386 181.5,227.5C 181.611,226.883 181.944,226.383 182.5,226C 178.63,222.298 174.963,218.464 171.5,214.5C 176.244,211.138 181.577,209.138 187.5,208.5C 187.5,207.167 187.5,205.833 187.5,204.5C 188.29,203.391 188.79,202.058 189,200.5C 196.5,208 204,215.5 211.5,223C 206.981,223.175 202.647,223.675 198.5,224.5 Z"/></g>
<g><path style="opacity:0.988" fill="#eb4125" d="M 430.5,128.5 C 435.23,132.227 439.23,136.56 442.5,141.5C 442.131,143.441 441.464,145.275 440.5,147C 450.4,164.195 458.067,182.362 463.5,201.5C 474.461,205.765 485.461,209.932 496.5,214C 499.102,214.883 501.269,216.383 503,218.5C 503.5,240.164 503.667,261.831 503.5,283.5C 498.167,278.5 492.833,273.5 487.5,268.5C 487.5,255.167 487.5,241.833 487.5,228.5C 474.293,224.481 461.46,219.481 449,213.5C 443.443,191.487 434.776,170.82 423,151.5C 422.333,149.167 422.333,146.833 423,144.5C 425.275,138.955 427.775,133.622 430.5,128.5 Z"/></g>
<g><path style="opacity:0.955" fill="#f79f14" d="M 43.5,203.5 C 47.8918,207.897 52.5584,211.897 57.5,215.5C 50.8759,218.934 43.8759,221.6 36.5,223.5C 32.5,219.167 28.5,214.833 24.5,210.5C 30.7307,207.885 37.064,205.551 43.5,203.5 Z"/></g>
<g><path style="opacity:0.993" fill="#ef5f20" d="M 357.5,253.5 C 352.202,248.703 347.035,243.703 342,238.5C 341.828,231.654 341.328,224.987 340.5,218.5C 340.998,206.82 335.665,202.32 324.5,205C 321.347,207.805 319.681,211.305 319.5,215.5C 313.833,210.167 308.167,204.833 302.5,199.5C 300.255,195.389 296.922,192.722 292.5,191.5C 293.239,191.631 293.906,191.464 294.5,191C 290.5,187 286.5,183 282.5,179C 281.552,178.517 280.552,178.351 279.5,178.5C 289.761,173.406 299.761,174.239 309.5,181C 312.378,183.709 315.044,186.542 317.5,189.5C 336.15,182.655 349.316,188.322 357,206.5C 357.5,222.163 357.667,237.83 357.5,253.5 Z"/></g>
<g><path style="opacity:0.971" fill="#f8a713" d="M 24.5,210.5 C 28.5,214.833 32.5,219.167 36.5,223.5C 32.5564,225.964 28.2231,227.63 23.5,228.5C 23.5,237.833 23.5,247.167 23.5,256.5C 18.1667,251.5 12.8333,246.5 7.5,241.5C 7.33365,233.826 7.50031,226.159 8,218.5C 12.8751,214.594 18.3751,211.928 24.5,210.5 Z"/></g>
<g><path style="opacity:0.959" fill="#f59117" d="M 129.5,208.5 C 125.096,221.12 122.429,234.12 121.5,247.5C 116.443,242.438 111.11,237.772 105.5,233.5C 107.777,220.676 111.444,208.343 116.5,196.5C 117.117,196.389 117.617,196.056 118,195.5C 122.436,199.428 126.269,203.761 129.5,208.5 Z"/></g>
<g><path style="opacity:0.959" fill="#ee5a21" d="M 387.5,229.5 C 393.833,234.833 400.167,240.167 406.5,245.5C 406.666,255.524 406.332,265.524 405.5,275.5C 400.925,269.254 395.591,263.587 389.5,258.5C 389.621,248.772 388.955,239.106 387.5,229.5 Z"/></g>
<g><path style="opacity:0.962" fill="#f48b18" d="M 171.5,214.5 C 174.963,218.464 178.63,222.298 182.5,226C 181.944,226.383 181.611,226.883 181.5,227.5C 168.419,235.34 162.752,247.007 164.5,262.5C 159.167,258.167 153.833,253.833 148.5,249.5C 149.45,233.251 157.116,221.585 171.5,214.5 Z"/></g>
<g><path style="opacity:0.954" fill="#f69915" d="M 105.5,233.5 C 111.11,237.772 116.443,242.438 121.5,247.5C 121.23,259.23 121.897,270.897 123.5,282.5C 117.445,276.44 111.111,270.774 104.5,265.5C 104.354,254.813 104.688,244.146 105.5,233.5 Z"/></g>
<g><path style="opacity:0.957" fill="#f2791b" d="M 253.5,237.5 C 264.965,248.465 276.298,259.631 287.5,271C 286.906,271.464 286.239,271.631 285.5,271.5C 282.325,271.497 279.492,270.497 277,268.5C 273.845,272.503 270.012,275.503 265.5,277.5C 260.617,272.13 255.951,267.297 251.5,263C 247.5,259 243.5,255 239.5,251C 237.292,250.809 235.292,250.309 233.5,249.5C 240.206,250.593 246.039,248.926 251,244.5C 252.136,242.257 252.97,239.924 253.5,237.5 Z M 262.5,257.5 C 261.437,261.073 259.104,262.906 255.5,263C 257.996,261.334 260.329,259.5 262.5,257.5 Z"/></g>
<g><path style="opacity:0.979" fill="#f06a1e" d="M 340.5,218.5 C 341.328,224.987 341.828,231.654 342,238.5C 347.035,243.703 352.202,248.703 357.5,253.5C 362.741,275.712 364.741,298.046 363.5,320.5C 358.5,314.833 353.167,309.5 347.5,304.5C 346.703,292.75 345.203,281.084 343,269.5C 331.523,274.464 320.856,273.131 311,265.5C 310.329,266.252 309.496,266.586 308.5,266.5C 305.564,261.895 301.898,257.895 297.5,254.5C 302.014,249.441 303.681,243.441 302.5,236.5C 303.29,235.391 303.79,234.058 304,232.5C 309.035,237.703 314.202,242.703 319.5,247.5C 323.676,255.989 329.843,257.655 338,252.5C 338.419,251.328 339.085,250.328 340,249.5C 340.5,239.172 340.666,228.839 340.5,218.5 Z"/></g>
<g><path style="opacity:0.964" fill="#f59217" d="M 148.5,249.5 C 153.833,253.833 159.167,258.167 164.5,262.5C 163.959,271.491 163.626,280.491 163.5,289.5C 157.833,284.167 152.167,278.833 146.5,273.5C 147.474,265.577 148.14,257.577 148.5,249.5 Z"/></g>
<g><path style="opacity:0.978" fill="#f3821a" d="M 233.5,249.5 C 235.292,250.309 237.292,250.809 239.5,251C 243.5,255 247.5,259 251.5,263C 255.951,267.297 260.617,272.13 265.5,277.5C 264.22,278.931 262.553,279.598 260.5,279.5C 262.33,290.429 262.83,301.429 262,312.5C 256.257,319.421 250.924,319.088 246,311.5C 246.29,300.925 244.957,290.592 242,280.5C 237.416,273.452 230.916,269.285 222.5,268C 212.209,266.828 201.876,266.161 191.5,266C 186.931,263.459 185.431,259.625 187,254.5C 187.833,252.333 189.333,250.833 191.5,250C 205.496,249.5 219.496,249.333 233.5,249.5 Z"/></g>
<g><path style="opacity:0.974" fill="#ef601f" d="M 389.5,258.5 C 395.591,263.587 400.925,269.254 405.5,275.5C 404.593,282.789 402.927,289.789 400.5,296.5C 396.108,292.103 391.442,288.103 386.5,284.5C 388.32,275.937 389.32,267.271 389.5,258.5 Z"/></g>
<g><path style="opacity:0.955" fill="#f7a014" d="M 104.5,265.5 C 111.111,270.774 117.445,276.44 123.5,282.5C 127.522,298.221 133.522,313.221 141.5,327.5C 131.167,317.5 120.833,307.5 110.5,297.5C 107.225,287.197 105.225,276.53 104.5,265.5 Z"/></g>
<g><path style="opacity:0.983" fill="#f9b211" d="M 7.5,241.5 C 12.8333,246.5 18.1667,251.5 23.5,256.5C 23.5,265.167 23.5,273.833 23.5,282.5C 36.7065,286.519 49.5399,291.519 62,297.5C 65.2641,308.626 68.9308,319.626 73,330.5C 77.9431,341.384 83.1098,352.05 88.5,362.5C 77.5349,352.035 66.7016,341.369 56,330.5C 55.6012,330.728 55.4346,331.062 55.5,331.5C 52.2677,324.478 49.601,317.145 47.5,309.5C 36.5389,305.235 25.5389,301.068 14.5,297C 11.8976,296.117 9.73092,294.617 8,292.5C 7.50006,275.503 7.3334,258.503 7.5,241.5 Z"/></g>
<g><path style="opacity:0.979" fill="#ed4d23" d="M 487.5,268.5 C 492.833,273.5 498.167,278.5 503.5,283.5C 505.278,290.256 502.944,294.756 496.5,297C 493.106,298.075 489.772,299.242 486.5,300.5C 482.5,296.167 478.5,291.833 474.5,287.5C 478.444,285.036 482.777,283.37 487.5,282.5C 487.5,277.833 487.5,273.167 487.5,268.5 Z"/></g>
<g><path style="opacity:0.959" fill="#f69916" d="M 146.5,273.5 C 152.167,278.833 157.833,284.167 163.5,289.5C 165.657,300.496 170.99,309.662 179.5,317C 189.35,324.518 198.184,333.018 206,342.5C 207.868,345.605 209.035,348.938 209.5,352.5C 216.5,352.5 223.5,352.5 230.5,352.5C 229.737,353.268 228.737,353.768 227.5,354C 232.703,359.035 237.703,364.202 242.5,369.5C 232.167,369.5 221.833,369.5 211.5,369.5C 211.5,380.5 211.5,391.5 211.5,402.5C 210.539,400.735 210.205,398.735 210.5,396.5C 210.666,387.494 210.5,378.494 210,369.5C 204.303,363.27 198.469,357.936 192.5,353.5C 189.108,348.599 185.108,344.099 180.5,340C 169.624,332.125 160.458,322.625 153,311.5C 147.294,299.466 145.127,286.799 146.5,273.5 Z"/></g>
<g><path style="opacity:0.965" fill="#f0661e" d="M 386.5,284.5 C 391.442,288.103 396.108,292.103 400.5,296.5C 399.025,304.593 396.358,312.26 392.5,319.5C 387.56,316.23 383.227,312.23 379.5,307.5C 382.296,299.983 384.63,292.317 386.5,284.5 Z"/></g>
<g><path style="opacity:0.963" fill="#ee5821" d="M 474.5,287.5 C 478.5,291.833 482.5,296.167 486.5,300.5C 478.941,303.688 471.274,306.688 463.5,309.5C 461.467,315.27 459.467,320.937 457.5,326.5C 453.139,321.807 448.805,317.141 444.5,312.5C 445.475,307.098 447.141,301.932 449.5,297C 457.645,293.258 465.978,290.091 474.5,287.5 Z"/></g>
<g><path style="opacity:0.971" fill="#f8a513" d="M 110.5,297.5 C 120.833,307.5 131.167,317.5 141.5,327.5C 153.209,344.21 167.543,358.21 184.5,369.5C 192.445,379.113 201.111,388.113 210.5,396.5C 210.205,398.735 210.539,400.735 211.5,402.5C 211.5,405.5 211.5,408.5 211.5,411.5C 217.5,411.5 223.5,411.5 229.5,411.5C 228.737,412.268 227.737,412.768 226.5,413C 231.703,418.035 236.703,423.202 241.5,428.5C 226.736,428.967 212.07,428.467 197.5,427C 196.667,426.167 195.833,425.333 195,424.5C 194.832,414.151 194.332,403.817 193.5,393.5C 151.546,373.878 123.88,341.878 110.5,297.5 Z"/></g>
<g><path style="opacity:0.964" fill="#f1731c" d="M 347.5,304.5 C 353.167,309.5 358.5,314.833 363.5,320.5C 363.5,322.5 363.5,324.5 363.5,326.5C 365.292,326.634 366.958,326.301 368.5,325.5C 374.473,330.806 380.14,336.473 385.5,342.5C 377.076,342.214 368.742,342.88 360.5,344.5C 355.5,339.167 350.5,333.833 345.5,328.5C 347.018,320.581 347.685,312.581 347.5,304.5 Z"/></g>
<g><path style="opacity:0.964" fill="#f16d1d" d="M 379.5,307.5 C 383.227,312.23 387.56,316.23 392.5,319.5C 391.513,321.473 390.513,323.473 389.5,325.5C 393.319,326.402 396.986,327.402 400.5,328.5C 419.167,347.833 438.167,366.833 457.5,385.5C 460.046,395.29 461.046,405.29 460.5,415.5C 454.556,410.894 448.89,405.894 443.5,400.5C 437.839,367.505 418.505,348.172 385.5,342.5C 380.14,336.473 374.473,330.806 368.5,325.5C 370.433,324.358 371.933,322.692 373,320.5C 375.213,316.075 377.379,311.741 379.5,307.5 Z"/></g>
<g><path style="opacity:0.968" fill="#ef6020" d="M 444.5,312.5 C 448.805,317.141 453.139,321.807 457.5,326.5C 455.621,333.247 452.954,339.58 449.5,345.5C 444.77,341.773 440.77,337.44 437.5,332.5C 439.835,325.828 442.168,319.162 444.5,312.5 Z"/></g>
<g><path style="opacity:0.968" fill="#f0681e" d="M 400.5,328.5 C 411.681,331.507 421.847,336.507 431,343.5C 433.699,340.096 435.865,336.429 437.5,332.5C 440.77,337.44 444.77,341.773 449.5,345.5C 448.317,349.55 446.651,353.383 444.5,357C 450.324,365.816 454.658,375.316 457.5,385.5C 438.167,366.833 419.167,347.833 400.5,328.5 Z"/></g>
<g><path style="opacity:0.958" fill="#f2791b" d="M 345.5,328.5 C 350.5,333.833 355.5,339.167 360.5,344.5C 353.79,347.022 347.457,350.356 341.5,354.5C 338.232,349.893 334.565,345.559 330.5,341.5C 334.061,338.468 338.061,335.968 342.5,334C 343.609,332.124 344.609,330.291 345.5,328.5 Z"/></g>
<g><path style="opacity:0.971" fill="#fab810" d="M 88.5,362.5 C 86.9154,369.659 84.2488,376.326 80.5,382.5C 75.7703,378.773 71.7703,374.44 68.5,369.5C 68.8693,367.559 69.536,365.725 70.5,364C 64.439,353.648 59.439,342.814 55.5,331.5C 55.4346,331.062 55.6012,330.728 56,330.5C 66.7016,341.369 77.5349,352.035 88.5,362.5 Z"/></g>
<g><path style="opacity:0.975" fill="#f3801a" d="M 330.5,341.5 C 334.565,345.559 338.232,349.893 341.5,354.5C 335.845,358.489 330.845,363.156 326.5,368.5C 320.224,363.893 314.557,358.559 309.5,352.5C 312.518,352.665 315.518,352.498 318.5,352C 322.076,347.918 326.076,344.418 330.5,341.5 Z"/></g>
<g><path style="opacity:0.988" fill="#f79f14" d="M 210.5,396.5 C 201.111,388.113 192.445,379.113 184.5,369.5C 187.634,370.901 190.634,372.568 193.5,374.5C 194.827,367.412 194.493,360.412 192.5,353.5C 198.469,357.936 204.303,363.27 210,369.5C 210.5,378.494 210.666,387.494 210.5,396.5 Z"/></g>
<g><path style="opacity:0.954" fill="#f59217" d="M 230.5,352.5 C 238.167,352.5 245.833,352.5 253.5,352.5C 258.297,357.798 263.297,362.965 268.5,368C 267.263,368.232 266.263,368.732 265.5,369.5C 257.833,369.5 250.167,369.5 242.5,369.5C 237.703,364.202 232.703,359.035 227.5,354C 228.737,353.768 229.737,353.268 230.5,352.5 Z"/></g>
<g><path style="opacity:0.972" fill="#f48619" d="M 286.5,352.5 C 294.167,352.5 301.833,352.5 309.5,352.5C 314.557,358.559 320.224,363.893 326.5,368.5C 322.339,375.154 319.005,382.154 316.5,389.5C 312.5,384.5 308.5,379.5 304.5,374.5C 304.893,372.716 305.559,371.05 306.5,369.5C 303.359,368.679 300.025,368.179 296.5,368C 291.833,363.333 287.167,358.667 282.5,354C 284.058,353.79 285.391,353.29 286.5,352.5 Z"/></g>
<g><path style="opacity:0.971" fill="#f48c18" d="M 253.5,352.5 C 264.5,352.5 275.5,352.5 286.5,352.5C 285.391,353.29 284.058,353.79 282.5,354C 287.167,358.667 291.833,363.333 296.5,368C 300.025,368.179 303.359,368.679 306.5,369.5C 292.833,369.5 279.167,369.5 265.5,369.5C 266.263,368.732 267.263,368.232 268.5,368C 263.297,362.965 258.297,357.798 253.5,352.5 Z"/></g>
<g><path style="opacity:0.971" fill="#f1721c" d="M 421.5,403.5 C 416.5,400.5 412.5,396.5 409.5,391.5C 410.793,389.704 412.293,388.037 414,386.5C 414.783,384.681 414.283,383.348 412.5,382.5C 409.814,384.856 407.147,387.189 404.5,389.5C 401.564,384.895 397.898,380.895 393.5,377.5C 401.892,364.976 412.558,362.476 425.5,370C 432.893,379.111 433.393,388.611 427,398.5C 425.296,400.373 423.463,402.04 421.5,403.5 Z"/></g>
<g><path style="opacity:0.967" fill="#f58d18" d="M 304.5,374.5 C 308.5,379.5 312.5,384.5 316.5,389.5C 314.906,397.408 314.239,405.408 314.5,413.5C 308.441,408.443 303.107,402.776 298.5,396.5C 298.962,388.643 300.962,381.309 304.5,374.5 Z"/></g>
<g><path style="opacity:0.961" fill="#f48719" d="M 351.5,386.5 C 360.111,396.447 369.111,406.114 378.5,415.5C 375.804,421.057 371.47,422.89 365.5,421C 358.864,415.366 352.531,409.366 346.5,403C 345.552,402.517 344.552,402.351 343.5,402.5C 343.343,403.873 343.51,405.207 344,406.5C 351.833,414.333 359.667,422.167 367.5,430C 368.833,430.667 370.167,430.667 371.5,430C 374.036,427.295 376.703,424.795 379.5,422.5C 383.167,426.5 386.833,430.5 390.5,434.5C 387.002,438.831 383.002,442.664 378.5,446C 371.693,448.21 365.027,447.877 358.5,445C 348.667,435.167 338.833,425.333 329,415.5C 323.013,402.118 326.513,392.285 339.5,386C 343.587,385.238 347.587,385.404 351.5,386.5 Z"/></g>
<g><path style="opacity:0.969" fill="#f27d1a" d="M 393.5,377.5 C 397.898,380.895 401.564,384.895 404.5,389.5C 396.167,398.5 387.5,407.167 378.5,415.5C 369.111,406.114 360.111,396.447 351.5,386.5C 353.593,387.045 355.593,387.878 357.5,389C 361.348,393.016 365.348,396.849 369.5,400.5C 377.521,392.812 385.521,385.145 393.5,377.5 Z"/></g>
<g><path style="opacity:0.964" fill="#fbc20e" d="M 68.5,369.5 C 71.7703,374.44 75.7703,378.773 80.5,382.5C 77.7156,388.71 75.549,395.044 74,401.5C 85.8333,413.333 97.6667,425.167 109.5,437C 115.956,435.451 122.29,433.284 128.5,430.5C 132.5,434.833 136.5,439.167 140.5,443.5C 131.154,447.563 121.821,451.73 112.5,456C 110.167,456.667 107.833,456.667 105.5,456C 88.6952,440.196 72.1952,424.029 56,407.5C 54.5432,404.634 54.2099,401.634 55,398.5C 59.2319,388.603 63.7319,378.937 68.5,369.5 Z"/></g>
<g><path style="opacity:0.973" fill="#f2791b" d="M 409.5,391.5 C 412.5,396.5 416.5,400.5 421.5,403.5C 416.833,408.833 411.833,413.833 406.5,418.5C 403.021,413.676 398.687,410.01 393.5,407.5C 398.5,401.833 403.833,396.5 409.5,391.5 Z"/></g>
<g><path style="opacity:0.966" fill="#f59317" d="M 298.5,396.5 C 303.107,402.776 308.441,408.443 314.5,413.5C 320.925,445.925 340.259,465.259 372.5,471.5C 377.5,476.833 382.5,482.167 387.5,487.5C 377.806,488.956 368.139,488.289 358.5,485.5C 334.702,461.201 310.702,437.035 286.5,413C 287.737,412.768 288.737,412.268 289.5,411.5C 292.167,411.5 294.833,411.5 297.5,411.5C 297.179,406.305 297.513,401.305 298.5,396.5 Z"/></g>
<g><path style="opacity:0.957" fill="#f1731c" d="M 443.5,400.5 C 448.89,405.894 454.556,410.894 460.5,415.5C 459.437,423.087 457.437,430.42 454.5,437.5C 449.833,433.5 445.5,429.167 441.5,424.5C 443.094,416.591 443.761,408.591 443.5,400.5 Z"/></g>
<g><path style="opacity:0.971" fill="#f37f1a" d="M 393.5,407.5 C 398.687,410.01 403.021,413.676 406.5,418.5C 401.5,424.167 396.167,429.5 390.5,434.5C 386.833,430.5 383.167,426.5 379.5,422.5C 383.48,416.887 388.146,411.887 393.5,407.5 Z"/></g>
<g><path style="opacity:0.95" fill="#f79f14" d="M 229.5,411.5 C 235.833,411.5 242.167,411.5 248.5,411.5C 249.952,412.302 251.618,412.802 253.5,413C 258.703,418.035 263.703,423.202 268.5,428.5C 259.5,428.5 250.5,428.5 241.5,428.5C 236.703,423.202 231.703,418.035 226.5,413C 227.737,412.768 228.737,412.268 229.5,411.5 Z"/></g>
<g><path style="opacity:0.953" fill="#f69816" d="M 248.5,411.5 C 262.167,411.5 275.833,411.5 289.5,411.5C 288.737,412.268 287.737,412.768 286.5,413C 310.702,437.035 334.702,461.201 358.5,485.5C 342.125,481.396 328.292,473.062 317,460.5C 314.544,461.574 312.044,462.574 309.5,463.5C 309.006,465.026 308.339,466.359 307.5,467.5C 303.103,463.108 299.103,458.442 295.5,453.5C 297.234,448.45 300.901,446.117 306.5,446.5C 304.511,440.869 302.511,435.202 300.5,429.5C 289.854,428.501 279.187,428.168 268.5,428.5C 263.703,423.202 258.703,418.035 253.5,413C 251.618,412.802 249.952,412.302 248.5,411.5 Z"/></g>
<g><path style="opacity:0.979" fill="#f9b311" d="M 254.5,487.5 C 259.5,492.833 264.5,498.167 269.5,503.5C 252.497,503.667 235.497,503.5 218.5,503C 216.383,501.269 214.883,499.102 214,496.5C 209.932,485.461 205.765,474.461 201.5,463.5C 182.362,458.067 164.195,450.4 147,440.5C 144.779,441.406 142.612,442.406 140.5,443.5C 136.5,439.167 132.5,434.833 128.5,430.5C 133.622,427.775 138.955,425.275 144.5,423C 146.833,422.333 149.167,422.333 151.5,423C 170.82,434.776 191.487,443.443 213.5,449C 219.481,461.46 224.481,474.293 228.5,487.5C 237.167,487.5 245.833,487.5 254.5,487.5 Z"/></g>
<g><path style="opacity:0.968" fill="#f27b1b" d="M 441.5,424.5 C 445.5,429.167 449.833,433.5 454.5,437.5C 451.032,445.769 446.532,453.436 441,460.5C 438.234,463.777 435.067,466.443 431.5,468.5C 427.833,464.5 424.167,460.5 420.5,456.5C 430.025,447.44 437.025,436.774 441.5,424.5 Z"/></g>
<g><path style="opacity:0.956" fill="#f79f14" d="M 295.5,453.5 C 299.103,458.442 303.103,463.108 307.5,467.5C 305.174,474.156 302.84,480.823 300.5,487.5C 296.527,482.86 292.194,478.527 287.5,474.5C 289.4,467.124 292.066,460.124 295.5,453.5 Z"/></g>
<g><path style="opacity:0.966" fill="#f48619" d="M 420.5,456.5 C 424.167,460.5 427.833,464.5 431.5,468.5C 425.637,474.602 418.637,478.935 410.5,481.5C 405.833,477.5 401.5,473.167 397.5,468.5C 405.896,465.803 413.563,461.803 420.5,456.5 Z"/></g>
<g><path style="opacity:0.968" fill="#f58d18" d="M 397.5,468.5 C 401.5,473.167 405.833,477.5 410.5,481.5C 403.381,485.198 395.714,487.198 387.5,487.5C 382.5,482.167 377.5,476.833 372.5,471.5C 381.044,471.87 389.377,470.87 397.5,468.5 Z"/></g>
<g><path style="opacity:0.976" fill="#f8a713" d="M 287.5,474.5 C 292.194,478.527 296.527,482.86 300.5,487.5C 298.875,493.213 296.208,498.38 292.5,503C 284.841,503.5 277.174,503.666 269.5,503.5C 264.5,498.167 259.5,492.833 254.5,487.5C 263.833,487.5 273.167,487.5 282.5,487.5C 283.37,482.777 285.036,478.444 287.5,474.5 Z"/></g>
</svg>
