<?xml version="1.0" encoding="UTF-8"?>
<!DOCTYPE svg PUBLIC "-//W3C//DTD SVG 1.1//EN" "http://www.w3.org/Graphics/SVG/1.1/DTD/svg11.dtd">
<svg xmlns="http://www.w3.org/2000/svg" version="1.1" width="512px" height="512px" style="shape-rendering:geometricPrecision; text-rendering:geometricPrecision; image-rendering:optimizeQuality; fill-rule:evenodd; clip-rule:evenodd" xmlns:xlink="http://www.w3.org/1999/xlink">
<g><path style="opacity:0.966" fill="#ebb200" d="M 147.5,53.5 C 147.5,58.8333 147.5,64.1667 147.5,69.5C 133.778,69.837 120.112,70.837 106.5,72.5C 106.5,66.8333 106.5,61.1667 106.5,55.5C 120.134,53.5016 133.801,52.8349 147.5,53.5 Z"/></g>
<g><path style="opacity:0.961" fill="#edab00" d="M 147.5,53.5 C 159.142,53.3728 170.475,54.7061 181.5,57.5C 182.452,63.0748 182.786,68.7414 182.5,74.5C 170.78,72.2457 159.113,70.5791 147.5,69.5C 147.5,64.1667 147.5,58.8333 147.5,53.5 Z"/></g>
<g><path style="opacity:0.952" fill="#f68c00" d="M 363.5,53.5 C 363.5,59.1667 363.5,64.8333 363.5,70.5C 352.065,71.0127 340.732,72.346 329.5,74.5C 328.793,68.9345 328.126,63.2678 327.5,57.5C 339.388,55.2161 351.388,53.8828 363.5,53.5 Z"/></g>
<g><path style="opacity:0.979" fill="#f88700" d="M 398.5,54.5 C 398.786,60.2586 398.452,65.9252 397.5,71.5C 386.167,70.0824 374.834,69.749 363.5,70.5C 363.5,64.8333 363.5,59.1667 363.5,53.5C 375.17,52.7739 386.837,53.1072 398.5,54.5 Z"/></g>
<g><path style="opacity:0.949" fill="#fb7f00" d="M 398.5,54.5 C 409.276,55.2875 419.61,57.7875 429.5,62C 437.488,69.5336 440.822,78.7002 439.5,89.5C 439.214,95.2586 439.548,100.925 440.5,106.5C 439.167,120.818 438.501,135.484 438.5,150.5C 438.5,165.337 438.833,180.004 439.5,194.5C 439.5,200.833 439.5,207.167 439.5,213.5C 426.801,206.325 413.134,203.325 398.5,204.5C 398.5,198.833 398.5,193.167 398.5,187.5C 406.191,187.403 413.858,187.737 421.5,188.5C 421.667,151.832 421.5,115.165 421,78.5C 419.992,76.741 418.492,75.5743 416.5,75C 410.236,73.4007 403.903,72.234 397.5,71.5C 398.452,65.9252 398.786,60.2586 398.5,54.5 Z"/></g>
<g><path style="opacity:0.946" fill="#e8b900" d="M 106.5,55.5 C 106.5,61.1667 106.5,66.8333 106.5,72.5C 101.04,73.0687 96.2069,75.0687 92,78.5C 91.3333,157.833 91.3333,237.167 92,316.5C 95.7131,320.786 100.213,321.786 105.5,319.5C 106.489,324.975 106.822,330.642 106.5,336.5C 90.9828,339.829 80.4828,334.162 75,319.5C 74.8329,247.999 74.3329,176.665 73.5,105.5C 71.5539,100.604 70.8872,95.2709 71.5,89.5C 72.1499,89.1961 72.8165,88.8627 73.5,88.5C 72.5336,77.9505 75.867,69.1172 83.5,62C 90.7861,58.509 98.4528,56.3423 106.5,55.5 Z"/></g>
<g><path style="opacity:0.963" fill="#efa500" d="M 181.5,57.5 C 194.026,59.2956 206.026,62.629 217.5,67.5C 217.5,73.5 217.5,79.5 217.5,85.5C 206.091,81.0634 194.424,77.3967 182.5,74.5C 182.786,68.7414 182.452,63.0748 181.5,57.5 Z"/></g>
<g><path style="opacity:0.961" fill="#f59300" d="M 327.5,57.5 C 328.126,63.2678 328.793,68.9345 329.5,74.5C 313.915,78.8076 298.581,84.141 283.5,90.5C 284.117,84.4018 283.45,78.7351 281.5,73.5C 296.132,66.3995 311.465,61.0661 327.5,57.5 Z"/></g>
<g><path style="opacity:0.97" fill="#f19e00" d="M 217.5,67.5 C 229.712,71.68 241.379,77.0134 252.5,83.5C 252.167,173.668 252.501,263.668 253.5,353.5C 247.28,357.238 240.614,358.072 233.5,356C 227.955,353.725 222.622,351.225 217.5,348.5C 217.5,342.5 217.5,336.5 217.5,330.5C 225.552,333.631 233.552,336.964 241.5,340.5C 244.797,339.702 246.964,337.702 248,334.5C 248.667,257.833 248.667,181.167 248,104.5C 247.608,101.545 246.108,99.3783 243.5,98C 234.929,93.5471 226.262,89.3804 217.5,85.5C 217.5,79.5 217.5,73.5 217.5,67.5 Z"/></g>
<g><path style="opacity:0.992" fill="#f29b00" d="M 281.5,73.5 C 283.45,78.7351 284.117,84.4018 283.5,90.5C 277.31,93.5165 271.476,97.1832 266,101.5C 265.333,179.833 265.333,258.167 266,336.5C 267.413,338.414 269.247,339.747 271.5,340.5C 275.526,338.818 279.526,337.152 283.5,335.5C 283.5,341.833 283.5,348.167 283.5,354.5C 274.182,358.574 265.182,357.907 256.5,352.5C 255.416,352.685 254.416,353.018 253.5,353.5C 252.501,263.668 252.167,173.668 252.5,83.5C 254.16,85.2484 256.16,85.7484 258.5,85C 265.631,80.1012 273.298,76.2678 281.5,73.5 Z"/></g>
<g><path style="opacity:0.956" fill="#fd7900" d="M 439.5,89.5 C 451.713,90.1864 463.713,91.5197 475.5,93.5C 475.786,99.2586 475.452,104.925 474.5,110.5C 463.272,108.643 451.938,107.31 440.5,106.5C 439.548,100.925 439.214,95.2586 439.5,89.5 Z"/></g>
<g><path style="opacity:0.969" fill="#e7be00" d="M 71.5,89.5 C 70.8872,95.2709 71.5539,100.604 73.5,105.5C 61.6549,107.055 49.6549,108.555 37.5,110C 36.4734,110.513 35.4734,111.013 34.5,111.5C 35.4128,105.559 35.7461,99.5594 35.5,93.5C 47.2722,91.3879 59.2722,90.0545 71.5,89.5 Z"/></g>
<g><path style="opacity:0.994" fill="#e5c300" d="M 35.5,93.5 C 35.7461,99.5594 35.4128,105.559 34.5,111.5C 33.1995,112.882 32.3661,114.548 32,116.5C 31.3333,198.833 31.3333,281.167 32,363.5C 32.4238,366.025 33.5905,368.025 35.5,369.5C 35.8222,375.358 35.4889,381.025 34.5,386.5C 25.1165,384.954 18.9498,379.62 16,370.5C 15.3333,283.5 15.3333,196.5 16,109.5C 19.0632,99.9335 25.5632,94.6002 35.5,93.5 Z"/></g>
<g><path style="opacity:0.991" fill="#fe7400" d="M 475.5,93.5 C 485.437,94.6002 491.937,99.9335 495,109.5C 495.667,196.5 495.667,283.5 495,370.5C 491.652,380.347 484.818,386.013 474.5,387.5C 475.804,381.734 475.804,376.067 474.5,370.5C 476.97,368.918 478.47,366.585 479,363.5C 479.667,349.167 479.667,334.833 479,320.5C 478.34,322.324 477.173,323.657 475.5,324.5C 475.829,311.323 475.495,298.323 474.5,285.5C 475.724,278.82 475.724,272.154 474.5,265.5C 475.167,252.167 475.833,238.833 476.5,225.5C 477.79,226.058 478.623,227.058 479,228.5C 479.667,191.167 479.667,153.833 479,116.5C 478.434,113.771 476.934,111.771 474.5,110.5C 475.452,104.925 475.786,99.2586 475.5,93.5 Z"/></g>
<g><path style="opacity:0.944" fill="#ebb000" d="M 148.5,112.5 C 147.548,118.075 147.214,123.741 147.5,129.5C 140.953,129.225 134.453,129.558 128,130.5C 120.337,128.507 118.003,123.84 121,116.5C 121.903,115.299 123.069,114.465 124.5,114C 132.429,112.637 140.429,112.137 148.5,112.5 Z"/></g>
<g><path style="opacity:0.963" fill="#edab00" d="M 148.5,112.5 C 160.107,113.198 171.44,114.865 182.5,117.5C 182.5,123.167 182.5,128.833 182.5,134.5C 170.946,132.097 159.279,130.431 147.5,129.5C 147.214,123.741 147.548,118.075 148.5,112.5 Z"/></g>
<g><path style="opacity:0.962" fill="#f88600" d="M 363.5,130.5 C 363.5,124.833 363.5,119.167 363.5,113.5C 373.506,112.087 383.506,112.253 393.5,114C 397.788,117.771 398.621,122.271 396,127.5C 393.848,128.885 391.515,129.885 389,130.5C 380.501,129.214 372.001,129.214 363.5,130.5 Z"/></g>
<g><path style="opacity:0.963" fill="#f68c00" d="M 363.5,113.5 C 363.5,119.167 363.5,124.833 363.5,130.5C 351.723,131.407 340.056,133.074 328.5,135.5C 328.5,129.833 328.5,124.167 328.5,118.5C 339.984,115.642 351.65,113.975 363.5,113.5 Z"/></g>
<g><path style="opacity:0.958" fill="#efa400" d="M 182.5,117.5 C 196.251,119.805 209.584,123.638 222.5,129C 227.254,133.351 227.588,138.018 223.5,143C 221.634,143.985 219.634,144.485 217.5,144.5C 205.958,140.764 194.292,137.431 182.5,134.5C 182.5,128.833 182.5,123.167 182.5,117.5 Z"/></g>
<g><path style="opacity:0.957" fill="#f59300" d="M 328.5,118.5 C 328.5,124.167 328.5,129.833 328.5,135.5C 319.235,138.976 309.735,141.976 300,144.5C 292.902,143.668 290.235,139.668 292,132.5C 293.543,130.622 295.376,129.122 297.5,128C 307.569,123.921 317.902,120.754 328.5,118.5 Z"/></g>
<g><path style="opacity:0.943" fill="#ebb100" d="M 147.5,159.5 C 147.5,165.167 147.5,170.833 147.5,176.5C 139.493,176.666 131.493,176.5 123.5,176C 117.92,170.514 118.253,165.514 124.5,161C 132.095,159.644 139.762,159.144 147.5,159.5 Z"/></g>
<g><path style="opacity:0.973" fill="#edab00" d="M 147.5,159.5 C 159.45,160.116 171.117,161.783 182.5,164.5C 182.214,170.259 182.548,175.925 183.5,181.5C 171.607,179.087 159.607,177.42 147.5,176.5C 147.5,170.833 147.5,165.167 147.5,159.5 Z"/></g>
<g><path style="opacity:0.967" fill="#f88700" d="M 362.5,177.5 C 363.452,171.925 363.786,166.259 363.5,160.5C 373.506,159.087 383.506,159.253 393.5,161C 397.785,164.728 398.618,169.228 396,174.5C 395.25,175.126 394.416,175.626 393.5,176C 383.141,176.266 372.808,176.766 362.5,177.5 Z"/></g>
<g><path style="opacity:0.958" fill="#f68c00" d="M 363.5,160.5 C 363.786,166.259 363.452,171.925 362.5,177.5C 351.069,178.516 339.735,180.183 328.5,182.5C 328.5,176.833 328.5,171.167 328.5,165.5C 339.984,162.642 351.65,160.975 363.5,160.5 Z"/></g>
<g><path style="opacity:0.961" fill="#efa500" d="M 182.5,164.5 C 196.251,166.805 209.584,170.638 222.5,176C 227.254,180.351 227.588,185.018 223.5,190C 221.634,190.985 219.634,191.485 217.5,191.5C 206.218,187.961 194.885,184.628 183.5,181.5C 182.548,175.925 182.214,170.259 182.5,164.5 Z"/></g>
<g><path style="opacity:0.951" fill="#f59200" d="M 328.5,165.5 C 328.5,171.167 328.5,176.833 328.5,182.5C 319.064,185.947 309.398,188.947 299.5,191.5C 292.754,190.366 290.254,186.366 292,179.5C 293.543,177.622 295.376,176.122 297.5,175C 307.569,170.921 317.902,167.754 328.5,165.5 Z"/></g>
<g><path style="opacity:0.962" fill="#f88700" d="M 398.5,187.5 C 398.5,193.167 398.5,198.833 398.5,204.5C 385.549,206.149 373.882,210.815 363.5,218.5C 364.123,211.745 363.456,205.412 361.5,199.5C 372.837,192.722 385.171,188.722 398.5,187.5 Z"/></g>
<g><path style="opacity:0.951" fill="#fd7800" d="M 439.5,194.5 C 455.227,200.903 467.561,211.236 476.5,225.5C 475.833,238.833 475.167,252.167 474.5,265.5C 470.793,242.737 459.126,225.404 439.5,213.5C 439.5,207.167 439.5,200.833 439.5,194.5 Z"/></g>
<g><path style="opacity:0.965" fill="#f68d00" d="M 361.5,199.5 C 363.456,205.412 364.123,211.745 363.5,218.5C 336.836,240.814 329.336,268.48 341,301.5C 346.114,313.083 353.614,322.75 363.5,330.5C 363.5,337.167 363.5,343.833 363.5,350.5C 356.001,346.246 349.001,341.246 342.5,335.5C 337.832,336.5 333.166,337.5 328.5,338.5C 328.5,332.833 328.5,327.167 328.5,321.5C 329.473,321.013 330.473,320.513 331.5,320C 329.942,317.948 328.608,315.781 327.5,313.5C 328.833,287.833 328.833,262.167 327.5,236.5C 328.086,234.16 329.086,231.993 330.5,230C 329.906,229.536 329.239,229.369 328.5,229.5C 328.5,223.833 328.5,218.167 328.5,212.5C 335.488,211.001 342.488,209.501 349.5,208C 353.102,204.559 357.102,201.725 361.5,199.5 Z"/></g>
<g><path style="opacity:0.94" fill="#ebb100" d="M 145.5,206.5 C 147.379,211.87 148.045,217.537 147.5,223.5C 139.493,223.666 131.493,223.5 123.5,223C 117.92,217.514 118.253,212.514 124.5,208C 131.426,206.661 138.426,206.161 145.5,206.5 Z"/></g>
<g><path style="opacity:0.964" fill="#edab00" d="M 145.5,206.5 C 158.153,206.798 170.486,208.464 182.5,211.5C 181.955,217.463 182.621,223.13 184.5,228.5C 172.256,226.179 159.923,224.513 147.5,223.5C 148.045,217.537 147.379,211.87 145.5,206.5 Z"/></g>
<g><path style="opacity:0.965" fill="#efa500" d="M 182.5,211.5 C 196.262,213.809 209.595,217.642 222.5,223C 227.254,227.351 227.588,232.018 223.5,237C 221.634,237.985 219.634,238.485 217.5,238.5C 206.408,235.133 195.408,231.8 184.5,228.5C 182.621,223.13 181.955,217.463 182.5,211.5 Z"/></g>
<g><path style="opacity:0.959" fill="#f59200" d="M 328.5,212.5 C 328.5,218.167 328.5,223.833 328.5,229.5C 319.123,232.569 309.623,235.569 300,238.5C 291.642,236.781 289.475,232.115 293.5,224.5C 304.593,218.913 316.26,214.913 328.5,212.5 Z"/></g>
<g><path style="opacity:0.95" fill="#fb7f00" d="M 400.5,218.5 C 411.771,217.767 422.437,219.934 432.5,225C 435.266,226.371 437.599,228.204 439.5,230.5C 439.5,238.5 439.5,246.5 439.5,254.5C 430.087,240.961 417.087,234.627 400.5,235.5C 397.833,229.833 397.833,224.167 400.5,218.5 Z"/></g>
<g><path style="opacity:0.961" fill="#f88700" d="M 400.5,218.5 C 397.833,224.167 397.833,229.833 400.5,235.5C 374.353,242.111 363.52,258.778 368,285.5C 373.917,301.261 385.084,310.594 401.5,313.5C 400.5,313.5 399.5,313.5 398.5,313.5C 398.218,318.927 398.551,324.26 399.5,329.5C 385.024,328.262 373.024,322.262 363.5,311.5C 363.5,286.833 363.5,262.167 363.5,237.5C 373.162,226.168 385.495,219.835 400.5,218.5 Z"/></g>
<g><path style="opacity:0.957" fill="#fc7a00" d="M 439.5,230.5 C 450.001,238.211 456.834,248.544 460,261.5C 464.33,284.687 457.497,303.687 439.5,318.5C 439.826,310.316 439.492,302.316 438.5,294.5C 446.067,281.376 446.401,268.043 439.5,254.5C 439.5,246.5 439.5,238.5 439.5,230.5 Z"/></g>
<g><path style="opacity:0.96" fill="#f59200" d="M 327.5,236.5 C 328.833,262.167 328.833,287.833 327.5,313.5C 322.677,303.027 319.677,292.027 318.5,280.5C 313.341,281.409 308.341,282.909 303.5,285C 294.333,286.5 290.5,282.667 292,273.5C 293.227,271.274 295.061,269.774 297.5,269C 304.619,266.294 311.786,263.794 319,261.5C 320.571,252.618 323.404,244.284 327.5,236.5 Z"/></g>
<g><path style="opacity:0.954" fill="#f78b00" d="M 363.5,237.5 C 363.5,262.167 363.5,286.833 363.5,311.5C 348.809,293.514 345.643,273.514 354,251.5C 356.448,246.248 359.614,241.581 363.5,237.5 Z"/></g>
<g><path style="opacity:0.941" fill="#ebb100" d="M 146.5,253.5 C 147.167,259.167 147.833,264.833 148.5,270.5C 140.16,270.666 131.827,270.5 123.5,270C 118.167,265 118.167,260 123.5,255C 131.105,253.689 138.772,253.189 146.5,253.5 Z"/></g>
<g><path style="opacity:0.969" fill="#edab00" d="M 146.5,253.5 C 158.813,253.879 170.813,255.545 182.5,258.5C 182.5,264.167 182.5,269.833 182.5,275.5C 171.282,273.088 159.949,271.421 148.5,270.5C 147.833,264.833 147.167,259.167 146.5,253.5 Z"/></g>
<g><path style="opacity:0.962" fill="#efa500" d="M 182.5,258.5 C 195.519,260.672 208.186,264.172 220.5,269C 226.894,272.911 227.894,277.911 223.5,284C 221.634,284.985 219.634,285.485 217.5,285.5C 205.954,281.763 194.287,278.429 182.5,275.5C 182.5,269.833 182.5,264.167 182.5,258.5 Z"/></g>
<g><path style="opacity:0.953" fill="#fd7800" d="M 474.5,285.5 C 475.495,298.323 475.829,311.323 475.5,324.5C 467.003,337.426 455.67,347.093 441.5,353.5C 439.614,347.792 438.947,341.792 439.5,335.5C 458.134,323.842 469.801,307.175 474.5,285.5 Z"/></g>
<g><path style="opacity:0.957" fill="#fb7f00" d="M 438.5,294.5 C 439.492,302.316 439.826,310.316 439.5,318.5C 427.751,327.772 414.417,331.438 399.5,329.5C 398.551,324.26 398.218,318.927 398.5,313.5C 399.5,313.5 400.5,313.5 401.5,313.5C 417.354,313.741 429.687,307.408 438.5,294.5 Z"/></g>
<g><path style="opacity:0.952" fill="#ebb200" d="M 146.5,316.5 C 148.132,322.38 147.798,328.046 145.5,333.5C 132.327,332.969 119.327,333.969 106.5,336.5C 106.822,330.642 106.489,324.975 105.5,319.5C 118.901,316.932 132.567,315.932 146.5,316.5 Z"/></g>
<g><path style="opacity:0.96" fill="#edab00" d="M 146.5,316.5 C 158.638,316.738 170.638,318.071 182.5,320.5C 182.5,326.167 182.5,331.833 182.5,337.5C 170.284,335.143 157.95,333.809 145.5,333.5C 147.798,328.046 148.132,322.38 146.5,316.5 Z"/></g>
<g><path style="opacity:0.966" fill="#efa500" d="M 182.5,320.5 C 194.415,323.028 206.082,326.362 217.5,330.5C 217.5,336.5 217.5,342.5 217.5,348.5C 205.885,344.352 194.219,340.685 182.5,337.5C 182.5,331.833 182.5,326.167 182.5,320.5 Z"/></g>
<g><path style="opacity:0.958" fill="#f49300" d="M 328.5,321.5 C 328.5,327.167 328.5,332.833 328.5,338.5C 312.911,342.251 297.911,347.585 283.5,354.5C 283.5,348.167 283.5,341.833 283.5,335.5C 297.943,329.138 312.943,324.471 328.5,321.5 Z"/></g>
<g><path style="opacity:0.969" fill="#f88600" d="M 363.5,330.5 C 374.723,338.286 387.057,342.952 400.5,344.5C 398.554,349.396 397.887,354.729 398.5,360.5C 397.5,360.5 396.5,360.5 395.5,360.5C 394.931,368.189 394.098,375.856 393,383.5C 390.353,395.084 388.187,406.751 386.5,418.5C 386.583,424.082 387.75,429.415 390,434.5C 392.322,437.395 395.155,439.395 398.5,440.5C 398.5,446.167 398.5,451.833 398.5,457.5C 386.418,455.911 377.918,449.578 373,438.5C 370.702,432.21 369.535,425.71 369.5,419C 370.043,409.702 371.376,400.535 373.5,391.5C 370.214,392.207 366.881,392.54 363.5,392.5C 363.5,386.833 363.5,381.167 363.5,375.5C 368.152,375.002 372.819,374.669 377.5,374.5C 377.833,368.5 378.167,362.5 378.5,356.5C 373.168,355.334 368.168,353.334 363.5,350.5C 363.5,343.833 363.5,337.167 363.5,330.5 Z"/></g>
<g><path style="opacity:0.964" fill="#fb7e00" d="M 439.5,335.5 C 438.947,341.792 439.614,347.792 441.5,353.5C 439.299,354.566 436.965,355.233 434.5,355.5C 434.334,360.511 434.501,365.511 435,370.5C 436.356,371.38 437.856,371.714 439.5,371.5C 439.5,376.833 439.5,382.167 439.5,387.5C 439.082,388.222 438.416,388.722 437.5,389C 442.338,402.589 443.838,416.423 442,430.5C 437.672,449.477 425.672,458.81 406,458.5C 403.538,457.841 401.038,457.507 398.5,457.5C 398.5,451.833 398.5,446.167 398.5,440.5C 416.319,444.112 425.653,436.945 426.5,419C 424.746,408.141 422.58,397.307 420,386.5C 418.507,377.891 417.674,369.225 417.5,360.5C 411.096,361.381 404.763,361.381 398.5,360.5C 397.887,354.729 398.554,349.396 400.5,344.5C 414.266,344.681 427.266,341.681 439.5,335.5 Z"/></g>
<g><path style="opacity:0.948" fill="#e6be00" d="M 35.5,369.5 C 47.7899,370.207 60.1232,370.873 72.5,371.5C 71.5476,377.075 71.2143,382.741 71.5,388.5C 59.0683,387.852 46.735,387.185 34.5,386.5C 35.4889,381.025 35.8222,375.358 35.5,369.5 Z"/></g>
<g><path style="opacity:0.952" fill="#fc7900" d="M 474.5,370.5 C 475.804,376.067 475.804,381.734 474.5,387.5C 462.833,387.5 451.167,387.5 439.5,387.5C 439.5,382.167 439.5,376.833 439.5,371.5C 451.086,370.522 462.753,370.189 474.5,370.5 Z"/></g>
<g><path style="opacity:0.963" fill="#e9b800" d="M 72.5,371.5 C 83.5145,371.457 94.5145,371.791 105.5,372.5C 106.833,378.167 106.833,383.833 105.5,389.5C 94.1813,388.778 82.8479,388.445 71.5,388.5C 71.2143,382.741 71.5476,377.075 72.5,371.5 Z"/></g>
<g><path style="opacity:0.952" fill="#ebb100" d="M 105.5,372.5 C 119.523,373.235 133.523,374.235 147.5,375.5C 147.5,381.167 147.5,386.833 147.5,392.5C 133.516,391.311 119.516,390.311 105.5,389.5C 106.833,383.833 106.833,378.167 105.5,372.5 Z"/></g>
<g><path style="opacity:0.971" fill="#edab00" d="M 147.5,375.5 C 159.372,376.263 171.038,377.596 182.5,379.5C 181.955,385.463 182.621,391.13 184.5,396.5C 172.2,394.874 159.867,393.541 147.5,392.5C 147.5,386.833 147.5,381.167 147.5,375.5 Z"/></g>
<g><path style="opacity:0.96" fill="#f68c00" d="M 363.5,375.5 C 363.5,381.167 363.5,386.833 363.5,392.5C 352.181,393.647 340.848,394.647 329.5,395.5C 328.512,390.36 328.179,385.026 328.5,379.5C 339.962,377.596 351.628,376.263 363.5,375.5 Z"/></g>
<g><path style="opacity:0.96" fill="#efa500" d="M 182.5,379.5 C 193.973,380.301 205.306,381.968 216.5,384.5C 217.462,391.412 217.795,398.412 217.5,405.5C 216.164,403.693 214.497,402.193 212.5,401C 203.209,399.174 193.876,397.674 184.5,396.5C 182.621,391.13 181.955,385.463 182.5,379.5 Z"/></g>
<g><path style="opacity:0.961" fill="#f49300" d="M 328.5,379.5 C 328.179,385.026 328.512,390.36 329.5,395.5C 319.13,396.965 308.797,399.131 298.5,402C 295.391,409.402 290.725,415.568 284.5,420.5C 283.833,412.167 283.167,403.833 282.5,395.5C 285.006,390.828 288.673,387.328 293.5,385C 304.983,382.002 316.65,380.169 328.5,379.5 Z"/></g>
<g><path style="opacity:0.961" fill="#f0a000" d="M 216.5,384.5 C 225.063,387.228 230.897,392.895 234,401.5C 238.333,407.663 244.167,411.663 251.5,413.5C 252.452,419.075 252.786,424.741 252.5,430.5C 235.659,429.259 223.992,420.926 217.5,405.5C 217.795,398.412 217.462,391.412 216.5,384.5 Z"/></g>
<g><path style="opacity:0.966" fill="#f29900" d="M 282.5,395.5 C 283.167,403.833 283.833,412.167 284.5,420.5C 276.695,427.665 267.361,431.332 256.5,431.5C 254.955,431.489 253.622,431.156 252.5,430.5C 252.786,424.741 252.452,419.075 251.5,413.5C 266.177,414.994 276.51,408.994 282.5,395.5 Z"/></g>
</svg>
