<?xml version="1.0" encoding="UTF-8"?>
<!DOCTYPE svg PUBLIC "-//W3C//DTD SVG 1.1//EN" "http://www.w3.org/Graphics/SVG/1.1/DTD/svg11.dtd">
<svg xmlns="http://www.w3.org/2000/svg" version="1.1" width="512px" height="512px" style="shape-rendering:geometricPrecision; text-rendering:geometricPrecision; image-rendering:optimizeQuality; fill-rule:evenodd; clip-rule:evenodd" xmlns:xlink="http://www.w3.org/1999/xlink">
<g><path style="opacity:0.959" fill="#ea3627" d="M 296.5,37.5 C 321.167,63.1712 346.167,87.8379 371.5,111.5C 379.967,133.919 381.633,156.919 376.5,180.5C 371.594,177.102 367.094,173.102 363,168.5C 362.506,166.866 362.34,165.199 362.5,163.5C 363.808,117.935 345.142,83.4354 306.5,60C 286.108,49.3784 264.442,45.2117 241.5,47.5C 237.14,42.4729 232.473,37.8062 227.5,33.5C 241.65,30.6267 255.984,29.7934 270.5,31C 279.595,31.9405 288.262,34.1072 296.5,37.5 Z"/></g>
<g><path style="opacity:0.962" fill="#e92f28" d="M 296.5,37.5 C 326.06,47.5516 348.56,66.2183 364,93.5C 367.347,99.1882 369.847,105.188 371.5,111.5C 346.167,87.8379 321.167,63.1712 296.5,37.5 Z"/></g>
<g><path style="opacity:0.969" fill="#ec4524" d="M 227.5,33.5 C 232.473,37.8062 237.14,42.4729 241.5,47.5C 225.797,50.3464 211.13,56.0131 197.5,64.5C 194.232,59.8927 190.565,55.5594 186.5,51.5C 198.768,42.5378 212.434,36.5378 227.5,33.5 Z"/></g>
<g><path style="opacity:0.98" fill="#eb4325" d="M 301.5,165.5 C 296.868,162.202 292.534,158.536 288.5,154.5C 295.636,147.533 302.97,140.7 310.5,134C 297.769,132.29 285.102,130.29 272.5,128C 271.667,127.167 270.833,126.333 270,125.5C 265.697,114.895 260.864,104.562 255.5,94.5C 252.679,100.326 249.679,105.993 246.5,111.5C 242.441,107.435 238.107,103.768 233.5,100.5C 238.514,88.3072 244.181,76.4739 250.5,65C 255.286,62.7382 259.453,63.5716 263,67.5C 269.837,82.6839 276.671,97.8506 283.5,113C 300.167,115 316.833,117 333.5,119C 339.542,121.837 341.042,126.337 338,132.5C 325.707,143.39 313.54,154.39 301.5,165.5 Z"/></g>
<g><path style="opacity:0.971" fill="#ed5222" d="M 186.5,51.5 C 190.565,55.5594 194.232,59.8927 197.5,64.5C 184.849,72.8179 174.183,83.1512 165.5,95.5C 161.435,91.4406 157.768,87.1073 154.5,82.5C 163.23,70.1019 173.897,59.7686 186.5,51.5 Z"/></g>
<g><path style="opacity:0.962" fill="#ed5022" d="M 233.5,100.5 C 238.107,103.768 242.441,107.435 246.5,111.5C 244.963,116.247 243.13,120.913 241,125.5C 239.981,126.687 238.814,127.687 237.5,128.5C 225.834,130.388 214.168,132.054 202.5,133.5C 198.199,127.531 193.199,122.198 187.5,117.5C 200.856,116.257 214.189,114.757 227.5,113C 229.403,108.697 231.403,104.53 233.5,100.5 Z"/></g>
<g><path style="opacity:0.972" fill="#ef5e20" d="M 154.5,82.5 C 157.768,87.1073 161.435,91.4406 165.5,95.5C 157.934,108.635 152.6,122.635 149.5,137.5C 144.833,133.167 140.167,128.833 135.5,124.5C 138.617,108.94 144.951,94.9401 154.5,82.5 Z"/></g>
<g><path style="opacity:0.971" fill="#ee5a20" d="M 187.5,117.5 C 193.199,122.198 198.199,127.531 202.5,133.5C 201.761,133.369 201.094,133.536 200.5,134C 209.333,142.167 218.167,150.333 227,158.5C 227.5,160 228,161.5 228.5,163C 226.973,169.471 225.639,175.971 224.5,182.5C 219.594,179.102 215.094,175.102 211,170.5C 210.517,169.552 210.351,168.552 210.5,167.5C 197.753,155.05 184.92,142.716 172,130.5C 171.107,127.084 171.607,123.917 173.5,121C 177.931,118.96 182.598,117.794 187.5,117.5 Z"/></g>
<g><path style="opacity:0.964" fill="#f0671e" d="M 135.5,124.5 C 140.167,128.833 144.833,133.167 149.5,137.5C 148.202,148.831 148.202,160.165 149.5,171.5C 143.864,167.399 138.364,162.399 133,156.5C 132.617,157.056 132.117,157.389 131.5,157.5C 131.239,146.168 132.572,135.168 135.5,124.5 Z"/></g>
<g><path style="opacity:0.976" fill="#ed4e23" d="M 288.5,154.5 C 292.534,158.536 296.868,162.202 301.5,165.5C 301.389,166.117 301.056,166.617 300.5,167C 304.049,181.699 307.049,196.533 309.5,211.5C 302.869,205.369 296.369,199.036 290,192.5C 289.536,193.094 289.369,193.761 289.5,194.5C 286.998,184.168 284.664,173.668 282.5,163C 283.153,159.185 285.153,156.352 288.5,154.5 Z"/></g>
<g><path style="opacity:0.96" fill="#f16d1d" d="M 149.5,171.5 C 160.244,218.245 188.91,247.578 235.5,259.5C 241.806,265.14 247.806,271.14 253.5,277.5C 240.953,277.996 228.953,275.996 217.5,271.5C 191.5,244.496 165.167,218.496 138.5,193.5C 134.031,182.042 131.698,170.042 131.5,157.5C 132.117,157.389 132.617,157.056 133,156.5C 138.364,162.399 143.864,167.399 149.5,171.5 Z"/></g>
<g><path style="opacity:0.964" fill="#ef621f" d="M 210.5,167.5 C 210.351,168.552 210.517,169.552 211,170.5C 215.094,175.102 219.594,179.102 224.5,182.5C 223.077,187.776 222.243,193.11 222,198.5C 225.808,196.347 229.642,194.347 233.5,192.5C 237.167,196.833 241.167,200.833 245.5,204.5C 234.392,211.226 223.059,217.726 211.5,224C 202.339,224.829 198.839,220.662 201,211.5C 203.886,196.638 207.053,181.972 210.5,167.5 Z"/></g>
<g><path style="opacity:0.969" fill="#ee5721" d="M 289.5,194.5 C 289.369,193.761 289.536,193.094 290,192.5C 296.369,199.036 302.869,205.369 309.5,211.5C 312.171,218.49 309.837,222.824 302.5,224.5C 298.626,223.565 294.96,222.065 291.5,220C 279.663,212.914 267.663,206.08 255.5,199.5C 252.133,201.225 248.8,202.892 245.5,204.5C 241.167,200.833 237.167,196.833 233.5,192.5C 240.205,187.478 247.538,183.478 255.5,180.5C 266.991,185.83 278.158,191.83 289,198.5C 289.49,197.207 289.657,195.873 289.5,194.5 Z"/></g>
<g><path style="opacity:0.965" fill="#f1711c" d="M 217.5,271.5 C 178.15,258.663 151.817,232.663 138.5,193.5C 165.167,218.496 191.5,244.496 217.5,271.5 Z"/></g>
<g><path style="opacity:0.964" fill="#ec4524" d="M 362.5,163.5 C 362.34,165.199 362.506,166.866 363,168.5C 367.094,173.102 371.594,177.102 376.5,180.5C 373.432,196.405 367.099,210.738 357.5,223.5C 353.435,219.441 349.768,215.107 346.5,210.5C 355.059,195.82 360.393,180.153 362.5,163.5 Z"/></g>
<g><path style="opacity:0.966" fill="#ea3727" d="M 511.5,262.5 C 511.5,268.833 511.5,275.167 511.5,281.5C 508.502,290.152 503.502,297.485 496.5,303.5C 493.232,298.893 489.565,294.559 485.5,290.5C 497.695,278.611 498.362,266.111 487.5,253C 478.654,246.42 469.32,245.753 459.5,251C 455.979,252.592 452.646,254.425 449.5,256.5C 446.5,251.5 442.5,247.5 437.5,244.5C 450.945,233.52 466.278,229.354 483.5,232C 498.603,236.934 507.936,247.1 511.5,262.5 Z"/></g>
<g><path style="opacity:0.964" fill="#ed5222" d="M 346.5,210.5 C 349.768,215.107 353.435,219.441 357.5,223.5C 354.011,230.17 349.511,236.17 344,241.5C 338.249,247.092 332.082,252.092 325.5,256.5C 322.232,251.893 318.565,247.559 314.5,243.5C 327.209,234.458 337.876,223.458 346.5,210.5 Z"/></g>
<g><path style="opacity:0.967" fill="#ef5e20" d="M 314.5,243.5 C 318.565,247.559 322.232,251.893 325.5,256.5C 313.211,264.641 299.878,270.641 285.5,274.5C 281.108,269.106 276.108,264.439 270.5,260.5C 286.16,257.61 300.827,251.943 314.5,243.5 Z"/></g>
<g><path style="opacity:0.959" fill="#ec4524" d="M 437.5,244.5 C 442.5,247.5 446.5,251.5 449.5,256.5C 438.279,264.381 427.946,273.381 418.5,283.5C 414.5,279.833 410.5,276.167 406.5,272.5C 415.633,261.693 425.966,252.36 437.5,244.5 Z"/></g>
<g><path style="opacity:0.968" fill="#f0671e" d="M 235.5,259.5 C 247.146,261.277 258.812,261.61 270.5,260.5C 276.108,264.439 281.108,269.106 285.5,274.5C 274.839,277.007 264.172,278.007 253.5,277.5C 247.806,271.14 241.806,265.14 235.5,259.5 Z"/></g>
<g><path style="opacity:0.966" fill="#ed5222" d="M 406.5,272.5 C 410.5,276.167 414.5,279.833 418.5,283.5C 407.806,294.527 397.139,305.527 386.5,316.5C 382.464,312.466 378.798,308.132 375.5,303.5C 385.5,292.833 395.833,282.5 406.5,272.5 Z"/></g>
<g><path style="opacity:0.964" fill="#f37f1a" d="M 194.5,304.5 C 194.389,305.117 194.056,305.617 193.5,306C 199.036,311.369 204.37,316.869 209.5,322.5C 196.167,321.5 182.834,320.5 169.5,319.5C 169.611,318.883 169.944,318.383 170.5,318C 165.605,312.936 160.605,308.103 155.5,303.5C 168.529,302.305 181.529,302.639 194.5,304.5 Z"/></g>
<g><path style="opacity:0.958" fill="#f2791b" d="M 194.5,304.5 C 204.496,305.218 214.496,305.884 224.5,306.5C 230.194,312.86 236.194,318.86 242.5,324.5C 231.477,324.124 220.477,323.457 209.5,322.5C 204.37,316.869 199.036,311.369 193.5,306C 194.056,305.617 194.389,305.117 194.5,304.5 Z"/></g>
<g><path style="opacity:0.953" fill="#f1731c" d="M 224.5,306.5 C 234.479,307.296 244.479,307.629 254.5,307.5C 259.833,313.167 265.167,318.833 270.5,324.5C 261.167,324.5 251.833,324.5 242.5,324.5C 236.194,318.86 230.194,312.86 224.5,306.5 Z"/></g>
<g><path style="opacity:0.966" fill="#f06b1e" d="M 345.5,333.5 C 348.963,337.464 352.63,341.298 356.5,345C 355.177,345.816 354.511,346.983 354.5,348.5C 345.654,359.246 334.987,367.579 322.5,373.5C 321.448,373.649 320.448,373.483 319.5,373C 313.298,366.631 306.965,360.464 300.5,354.5C 305.682,336.532 299.015,326.199 280.5,323.5C 277.183,324.053 273.85,324.386 270.5,324.5C 265.167,318.833 259.833,313.167 254.5,307.5C 265.184,307.362 275.851,307.196 286.5,307C 312.554,313.45 322.887,329.783 317.5,356C 321.274,355.446 324.608,353.78 327.5,351C 333.369,344.964 339.369,339.13 345.5,333.5 Z"/></g>
<g><path style="opacity:0.975" fill="#ec4524" d="M 485.5,290.5 C 489.565,294.559 493.232,298.893 496.5,303.5C 487.139,313.193 477.806,322.86 468.5,332.5C 463.895,329.564 459.895,325.898 456.5,321.5C 465.828,310.839 475.495,300.506 485.5,290.5 Z"/></g>
<g><path style="opacity:0.973" fill="#f48a18" d="M 155.5,303.5 C 160.605,308.103 165.605,312.936 170.5,318C 169.944,318.383 169.611,318.883 169.5,319.5C 162.21,319.658 155.21,321.158 148.5,324C 141.743,327.603 135.409,331.77 129.5,336.5C 126.105,332.102 122.105,328.436 117.5,325.5C 127.979,314.587 140.645,307.254 155.5,303.5 Z"/></g>
<g><path style="opacity:0.979" fill="#ef5e20" d="M 375.5,303.5 C 378.798,308.132 382.464,312.466 386.5,316.5C 376.167,327.5 365.5,338.167 354.5,348.5C 354.511,346.983 355.177,345.816 356.5,345C 352.63,341.298 348.963,337.464 345.5,333.5C 355.167,323.167 365.167,313.167 375.5,303.5 Z"/></g>
<g><path style="opacity:0.964" fill="#f59217" d="M 117.5,325.5 C 122.105,328.436 126.105,332.102 129.5,336.5C 125.113,341.854 120.113,346.52 114.5,350.5C 110.5,346.833 106.5,343.167 102.5,339.5C 106.892,334.106 111.892,329.439 117.5,325.5 Z"/></g>
<g><path style="opacity:0.974" fill="#ed5222" d="M 456.5,321.5 C 459.895,325.898 463.895,329.564 468.5,332.5C 458.172,344.161 447.505,355.495 436.5,366.5C 432.833,362.5 429.167,358.5 425.5,354.5C 425.369,353.761 425.536,353.094 426,352.5C 436.396,342.272 446.563,331.938 456.5,321.5 Z"/></g>
<g><path style="opacity:0.966" fill="#f1731c" d="M 300.5,354.5 C 306.965,360.464 313.298,366.631 319.5,373C 320.448,373.483 321.448,373.649 322.5,373.5C 314.664,377.212 306.331,379.545 297.5,380.5C 292.438,375.443 287.772,370.11 283.5,364.5C 290.898,363.972 296.565,360.639 300.5,354.5 Z"/></g>
<g><path style="opacity:0.946" fill="#f79e14" d="M 102.5,339.5 C 106.5,343.167 110.5,346.833 114.5,350.5C 106.07,360.433 97.0699,369.933 87.5,379C 85.559,380.903 83.2257,381.736 80.5,381.5C 75.7031,376.202 70.7031,371.035 65.5,366C 67.0581,365.79 68.3915,365.29 69.5,364.5C 72.1873,364.664 74.854,364.497 77.5,364C 85.7017,355.631 94.035,347.464 102.5,339.5 Z"/></g>
<g><path style="opacity:0.946" fill="#f8ab12" d="M 34.5,364.5 C 39.2969,369.798 44.2969,374.965 49.5,380C 52.6946,380.181 55.6946,380.681 58.5,381.5C 46.1667,381.5 33.8333,381.5 21.5,381.5C 16.5,376.167 11.5,370.833 6.5,365.5C 15.6517,364.506 24.985,364.173 34.5,364.5 Z"/></g>
<g><path style="opacity:0.934" fill="#f8a513" d="M 34.5,364.5 C 46.1667,364.5 57.8333,364.5 69.5,364.5C 68.3915,365.29 67.0581,365.79 65.5,366C 70.7031,371.035 75.7031,376.202 80.5,381.5C 73.1667,381.5 65.8333,381.5 58.5,381.5C 55.6946,380.681 52.6946,380.181 49.5,380C 44.2969,374.965 39.2969,369.798 34.5,364.5 Z"/></g>
<g><path style="opacity:0.955" fill="#f58d18" d="M 183.5,364.5 C 185.292,365.309 187.292,365.809 189.5,366C 194.703,371.035 199.703,376.202 204.5,381.5C 192.829,381.667 181.162,381.5 169.5,381C 165.031,377.084 164.364,372.584 167.5,367.5C 168.912,366.194 170.579,365.36 172.5,365C 176.152,364.501 179.818,364.335 183.5,364.5 Z"/></g>
<g><path style="opacity:0.953" fill="#f37f1a" d="M 217.5,364.5 C 230.833,364.5 244.167,364.5 257.5,364.5C 256.391,365.29 255.058,365.79 253.5,366C 258.703,371.035 263.703,376.202 268.5,381.5C 258.5,381.5 248.5,381.5 238.5,381.5C 236.708,380.691 234.708,380.191 232.5,380C 227.297,374.965 222.297,369.798 217.5,364.5 Z"/></g>
<g><path style="opacity:0.94" fill="#f2791b" d="M 257.5,364.5 C 266.167,364.5 274.833,364.5 283.5,364.5C 287.772,370.11 292.438,375.443 297.5,380.5C 287.861,381.36 278.194,381.693 268.5,381.5C 263.703,376.202 258.703,371.035 253.5,366C 255.058,365.79 256.391,365.29 257.5,364.5 Z"/></g>
<g><path style="opacity:1" fill="#f48619" d="M 183.5,364.5 C 194.833,364.5 206.167,364.5 217.5,364.5C 222.297,369.798 227.297,374.965 232.5,380C 234.708,380.191 236.708,380.691 238.5,381.5C 227.167,381.5 215.833,381.5 204.5,381.5C 199.703,376.202 194.703,371.035 189.5,366C 187.292,365.809 185.292,365.309 183.5,364.5 Z"/></g>
<g><path style="opacity:0.972" fill="#ef5e20" d="M 425.5,354.5 C 429.167,358.5 432.833,362.5 436.5,366.5C 427.506,376.827 418.172,386.827 408.5,396.5C 404.441,392.435 400.107,388.768 395.5,385.5C 404.8,374.532 414.8,364.199 425.5,354.5 Z"/></g>
<g><path style="opacity:1" fill="#f9b211" d="M 6.5,365.5 C 11.5,370.833 16.5,376.167 21.5,381.5C 19.5,381.5 17.5,381.5 15.5,381.5C 15.5,390.833 15.5,400.167 15.5,409.5C 10.1667,404.5 4.83333,399.5 -0.5,394.5C -0.5,386.167 -0.5,377.833 -0.5,369.5C 1.01439,366.905 3.34772,365.571 6.5,365.5 Z"/></g>
<g><path style="opacity:1" fill="#fab810" d="M -0.5,394.5 C 4.83333,399.5 10.1667,404.5 15.5,409.5C 15.5,419.5 15.5,429.5 15.5,439.5C 10.1667,434.5 4.83333,429.5 -0.5,424.5C -0.5,414.5 -0.5,404.5 -0.5,394.5 Z"/></g>
<g><path style="opacity:0.953" fill="#f06b1d" d="M 395.5,385.5 C 400.107,388.768 404.441,392.435 408.5,396.5C 398.172,408.161 387.505,419.495 376.5,430.5C 372.86,426.194 368.86,422.194 364.5,418.5C 374.495,407.172 384.828,396.172 395.5,385.5 Z"/></g>
<g><path style="opacity:0.998" fill="#fbbf0f" d="M -0.5,424.5 C 4.83333,429.5 10.1667,434.5 15.5,439.5C 15.5,447.5 15.5,455.5 15.5,463.5C 23.5,463.5 31.5,463.5 39.5,463.5C 39.5,464.167 39.8333,464.5 40.5,464.5C 44.9634,469.465 49.6301,474.298 54.5,479C 56.7078,479.191 58.7078,479.691 60.5,480.5C 41.4971,480.667 22.4971,480.5 3.5,480C 1.64977,479.31 0.316435,478.144 -0.5,476.5C -0.5,459.167 -0.5,441.833 -0.5,424.5 Z"/></g>
<g><path style="opacity:0.967" fill="#f2771b" d="M 364.5,418.5 C 368.86,422.194 372.86,426.194 376.5,430.5C 366.806,440.527 357.139,450.527 347.5,460.5C 343.833,456.167 339.833,452.167 335.5,448.5C 345.139,438.527 354.806,428.527 364.5,418.5 Z"/></g>
<g><path style="opacity:0.969" fill="#f38419" d="M 335.5,448.5 C 339.833,452.167 343.833,456.167 347.5,460.5C 335.663,471.416 321.663,478.082 305.5,480.5C 299.454,475.963 293.787,470.797 288.5,465C 279.84,464.5 271.173,464.334 262.5,464.5C 262.5,464.167 262.5,463.833 262.5,463.5C 276.837,463.667 291.171,463.5 305.5,463C 317.005,461.079 327.005,456.246 335.5,448.5 Z"/></g>
<g><path style="opacity:0.996" fill="#fab810" d="M 40.5,464.5 C 50.5056,464.334 60.5056,464.5 70.5,465C 75.7031,470.035 80.7031,475.202 85.5,480.5C 77.1667,480.5 68.8333,480.5 60.5,480.5C 58.7078,479.691 56.7078,479.191 54.5,479C 49.6301,474.298 44.9634,469.465 40.5,464.5 Z"/></g>
<g><path style="opacity:0.996" fill="#f9b011" d="M 39.5,463.5 C 64.1667,463.5 88.8333,463.5 113.5,463.5C 118.833,469.167 124.167,474.833 129.5,480.5C 114.833,480.5 100.167,480.5 85.5,480.5C 80.7031,475.202 75.7031,470.035 70.5,465C 60.5056,464.5 50.5056,464.334 40.5,464.5C 39.8333,464.5 39.5,464.167 39.5,463.5 Z"/></g>
<g><path style="opacity:0.996" fill="#f8a613" d="M 113.5,463.5 C 130.833,463.5 148.167,463.5 165.5,463.5C 165.389,464.117 165.056,464.617 164.5,465C 169.703,470.035 174.703,475.202 179.5,480.5C 162.833,480.5 146.167,480.5 129.5,480.5C 124.167,474.833 118.833,469.167 113.5,463.5 Z"/></g>
<g><path style="opacity:0.996" fill="#f69f14" d="M 165.5,463.5 C 173.167,463.5 180.833,463.5 188.5,463.5C 190.292,464.309 192.292,464.809 194.5,465C 199.703,470.035 204.703,475.202 209.5,480.5C 199.5,480.5 189.5,480.5 179.5,480.5C 174.703,475.202 169.703,470.035 164.5,465C 165.056,464.617 165.389,464.117 165.5,463.5 Z"/></g>
<g><path style="opacity:0.996" fill="#f59816" d="M 188.5,463.5 C 213.167,463.5 237.833,463.5 262.5,463.5C 262.5,463.833 262.5,464.167 262.5,464.5C 261.167,464.5 259.833,464.5 258.5,464.5C 248.494,464.334 238.494,464.5 228.5,465C 233.703,470.035 238.703,475.202 243.5,480.5C 232.167,480.5 220.833,480.5 209.5,480.5C 204.703,475.202 199.703,470.035 194.5,465C 192.292,464.809 190.292,464.309 188.5,463.5 Z"/></g>
<g><path style="opacity:0.996" fill="#f59217" d="M 258.5,464.5 C 263.5,469.833 268.5,475.167 273.5,480.5C 263.5,480.5 253.5,480.5 243.5,480.5C 238.703,475.202 233.703,470.035 228.5,465C 238.494,464.5 248.494,464.334 258.5,464.5 Z"/></g>
<g><path style="opacity:0.995" fill="#f48c18" d="M 258.5,464.5 C 259.833,464.5 261.167,464.5 262.5,464.5C 271.173,464.334 279.84,464.5 288.5,465C 293.787,470.797 299.454,475.963 305.5,480.5C 294.833,480.5 284.167,480.5 273.5,480.5C 268.5,475.167 263.5,469.833 258.5,464.5 Z"/></g>
</svg>
